<svg id="Layer_3" height="512" viewBox="0 0 64 64" width="512" xmlns="http://www.w3.org/2000/svg" data-name="Layer 3"><g fill="#e2e7f6"><path d="m15 10h8v2h-8z"/><path d="m41 10h8v2h-8z"/><path d="m50 13h2v11h-2z"/><path d="m12 13h2v22h-2z"/></g><path d="m17 56h20a2 2 0 0 1 2 2v4a0 0 0 0 1 0 0h-24a0 0 0 0 1 0 0v-4a2 2 0 0 1 2-2z" fill="#939393"/><path d="m35 58v-2h-18a2 2 0 0 0 -2 2v1h19a1 1 0 0 0 1-1z" fill="#b5b5b5"/><path d="m25 50h4v6h-4z" fill="#686868"/><path d="m27 52v-2h-2v3h1a1 1 0 0 0 1-1z" fill="#727272"/><path d="m62 24h-40l-20 20h40z" fill="#3b5892"/><path d="m2 44h40v6h-40z" fill="#939393"/><path d="m62 24-20 20v6l20-20z" fill="#b5b5b5"/><path d="m55 31 2-2h-8.586l5-5h-2.828l-5 5h-7.172l5-5h-2.828l-5 5h-7.172l5-5h-2.828l-5 5h-8.586l-2 2h8.586l-4 4h-8.586l-2 2h8.586l-7 7h2.828l7-7h7.172l-7 7h2.828l7-7h7.172l-7 7h2.828l7-7h8.586l2-2h-8.586l4-4zm-25.414 4h-7.172l4-4h7.172zm10 0h-7.172l4-4h7.172z" fill="#4c6cb5"/><path d="m39 46v-2h-37v3h36a1 1 0 0 0 1-1z" fill="#b5b5b5"/><path d="m41 13v-4h-1.262a7.968 7.968 0 0 0 -.852-2.058l.892-.892-2.828-2.828-.892.892a7.968 7.968 0 0 0 -2.058-.852v-1.262h-4v1.262a7.968 7.968 0 0 0 -2.058.852l-.892-.892-2.828 2.828.892.892a7.968 7.968 0 0 0 -.852 2.058h-1.262v4h1.262a7.968 7.968 0 0 0 .852 2.058l-.892.892 2.828 2.828.892-.892a7.968 7.968 0 0 0 2.058.852v1.262h4v-1.262a7.968 7.968 0 0 0 2.058-.852l.892.892 2.828-2.828-.892-.892a7.968 7.968 0 0 0 .852-2.058z" fill="#5e87ca"/><circle cx="32" cy="11" fill="#f2f2f2" r="4"/><circle cx="51" cy="11" fill="#f4a93c" r="3"/><path d="m48 11a2.965 2.965 0 0 0 .446 1.554 2.965 2.965 0 0 0 1.554.446 3 3 0 0 0 3-3 2.965 2.965 0 0 0 -.446-1.554 2.965 2.965 0 0 0 -1.554-.446 3 3 0 0 0 -3 3z" fill="#f6b940"/><circle cx="13" cy="11" fill="#f4a93c" r="3"/><path d="m10 11a2.965 2.965 0 0 0 .446 1.554 2.965 2.965 0 0 0 1.554.446 3 3 0 0 0 3-3 2.965 2.965 0 0 0 -.446-1.554 2.965 2.965 0 0 0 -1.554-.446 3 3 0 0 0 -3 3z" fill="#f6b940"/></svg>