<svg id="Layer_3" height="512" viewBox="0 0 64 64" width="512" xmlns="http://www.w3.org/2000/svg" data-name="Layer 3"><circle cx="32" cy="32" fill="#43b6e5" r="30"/><path d="m32 2a29.853 29.853 0 0 0 -17.418 5.582 29.992 29.992 0 0 0 41.836 41.836 29.992 29.992 0 0 0 -24.418-47.418z" fill="#66c3e9"/><circle cx="32" cy="32" fill="#ecf2f7" r="26"/><path d="m32 6a25.984 25.984 0 0 0 -22.3 12.63 29.934 29.934 0 0 0 35.67 35.67 26 26 0 0 0 -13.37-48.3z" fill="#fff"/><path d="m32.947 58.984-.068-2c.636-.022 1.278-.068 1.908-.138l.221 1.987c-.681.077-1.373.127-2.061.151zm-2.064-.007c-.689-.028-1.382-.082-2.06-.162l.233-1.986c.628.073 1.27.124 1.909.15zm6.17-.45-.371-1.965c.624-.118 1.251-.262 1.863-.428l.523 1.931c-.663.179-1.34.335-2.015.462zm-10.274-.027c-.675-.133-1.351-.293-2.011-.475l.533-1.928c.612.169 1.239.317 1.863.44zm14.263-1.047-.67-1.885c.6-.213 1.2-.452 1.779-.71l.813 1.827c-.626.274-1.274.533-1.922.764zm-18.242-.062c-.645-.233-1.288-.495-1.915-.778l.824-1.822c.58.262 1.176.5 1.77.719zm22.02-1.624-.951-1.759c.561-.3 1.115-.632 1.648-.974l1.084 1.68c-.576.371-1.174.725-1.781 1.053zm-25.785-.077c-.6-.33-1.2-.688-1.771-1.063l1.091-1.674c.534.347 1.085.678 1.643.983zm29.265-2.16-1.209-1.594c.506-.383 1-.791 1.481-1.215l1.327 1.5c-.52.454-1.058.895-1.599 1.309zm-32.72-.1c-.546-.42-1.081-.864-1.589-1.32l1.334-1.489c.472.422.968.834 1.474 1.224zm35.813-2.642-1.44-1.388c.44-.454.87-.933 1.279-1.425l1.538 1.279c-.442.53-.907 1.046-1.381 1.537zm-38.893-.112c-.479-.5-.94-1.022-1.371-1.545l1.545-1.271c.4.486.827.969 1.271 1.434zm41.53-3.061-1.63-1.158c.368-.518.72-1.056 1.047-1.6l1.715 1.028c-.354.589-.735 1.171-1.132 1.73zm-44.151-.131c-.395-.563-.773-1.148-1.122-1.738l1.721-1.019c.324.546.672 1.088 1.038 1.608zm46.277-3.41-1.789-.894c.285-.569.551-1.156.791-1.743l1.852.757c-.26.634-.547 1.266-.854 1.88zm-48.385-.146c-.3-.612-.585-1.248-.842-1.89l1.855-.744c.239.6.5 1.183.78 1.749zm49.945-3.679-1.9-.609c.2-.612.368-1.232.511-1.843l1.948.46c-.161.661-.347 1.331-.559 1.992zm-51.483-.161c-.2-.647-.385-1.318-.543-1.995l1.95-.451c.144.627.313 1.249.5 1.847zm52.438-3.859-1.977-.31c.1-.624.175-1.263.226-1.9l1.994.161c-.056.687-.138 1.377-.243 2.049zm-53.371-.167c-.1-.678-.181-1.369-.231-2.054l1.994-.147c.047.635.119 1.275.213 1.9zm53.7-3.953h-2v-.109c0-.637-.024-1.28-.072-1.913l1.994-.151c.052.683.078 1.377.078 2.064zm-52-.16-2-.006c0-.691.029-1.385.082-2.064l1.994.155c-.049.629-.076 1.273-.076 1.915zm49.712-3.765c-.1-.625-.217-1.257-.361-1.879l1.947-.453c.156.672.288 1.356.39 2.031zm-49.412-.051-1.977-.308c.107-.682.24-1.365.4-2.029l1.947.459c-.15.614-.27 1.245-.37 1.878zm48.544-3.673c-.193-.606-.41-1.213-.648-1.8l1.856-.747c.257.637.491 1.293.7 1.948zm-47.67-.05-1.906-.61c.209-.655.444-1.308.7-1.944l1.853.75c-.236.594-.455 1.194-.647 1.804zm46.238-3.5c-.28-.564-.589-1.131-.917-1.683l1.721-1.021c.353.6.685 1.206.987 1.815zm-44.8-.043-1.792-.891c.307-.617.641-1.226.992-1.813l1.716 1.026c-.328.543-.628 1.111-.919 1.679zm42.845-3.247c-.365-.518-.756-1.031-1.162-1.523l1.543-1.272c.438.531.86 1.084 1.254 1.644zm-40.883-.034-1.636-1.154c.4-.564.822-1.116 1.256-1.641l1.541 1.275c-.402.487-.794.998-1.164 1.521zm38.447-2.918c-.442-.459-.906-.905-1.379-1.327l1.33-1.493c.511.456 1.013.939 1.49 1.435zm-36.007-.03-1.44-1.389c.475-.491.977-.973 1.491-1.431l1.331 1.494c-.481.426-.946.872-1.385 1.327zm33.152-2.517c-.5-.386-1.03-.757-1.563-1.1l1.087-1.678c.578.374 1.146.775 1.691 1.192zm-30.295-.021-1.213-1.591c.543-.414 1.113-.814 1.694-1.19l1.085 1.681c-.537.343-1.064.713-1.566 1.1zm27.085-2.057c-.56-.3-1.136-.591-1.713-.851l.82-1.824c.624.281 1.247.59 1.85.919zm-23.872-.023-.955-1.757c.6-.327 1.226-.636 1.855-.917l.816 1.822c-.581.26-1.159.545-1.716.848zm20.387-1.548c-.595-.215-1.208-.409-1.825-.579l.532-1.928c.666.183 1.329.393 1.97.625zm-16.893-.019-.678-1.883c.65-.232 1.313-.441 1.973-.621l.525 1.93c-.605.166-1.219.359-1.82.574zm13.206-.995c-.624-.122-1.261-.22-1.89-.292l.228-1.987c.681.078 1.368.184 2.043.315zm-9.516-.011-.377-1.964c.673-.129 1.361-.233 2.044-.311l.224 1.988c-.632.071-1.268.168-1.891.287zm5.716-.428c-.632-.024-1.277-.025-1.917 0l-.072-2c.689-.025 1.384-.024 2.067 0z" fill="#3693cf"/><path d="m53 32a21.014 21.014 0 0 1 -2.39 9.75l-3.55-1.86a17 17 0 1 0 -30.12 0l-3.55 1.86a21 21 0 1 1 39.61-9.75z" fill="#488540"/><path d="m43 48a10.963 10.963 0 0 1 -1.45 5.46l-3.47-1.99a6.888 6.888 0 0 0 .92-3.47 7 7 0 0 0 -14 0 6.888 6.888 0 0 0 .92 3.47l-3.47 1.99a11 11 0 1 1 20.55-5.46z" fill="#fec153"/><path d="m49 32a16.87 16.87 0 0 1 -1.94 7.89l3.55 1.86a21 21 0 0 0 -17.61-30.7 20.982 20.982 0 0 0 -18.016 29.865l1.956-1.025a17 17 0 1 1 32.06-7.89z" fill="#57a14c"/><path d="m31 9h2v22h-2z" fill="#66c3e9"/><path d="m33 37.05a10.959 10.959 0 0 0 -8.989 15.515l1.909-1.095a6.888 6.888 0 0 1 -.92-3.47 7 7 0 0 1 14 0 6.888 6.888 0 0 1 -.92 3.47l3.47 1.99a11 11 0 0 0 -8.55-16.41z" fill="#ffd985"/><path d="m30.782 41.647h13.142v2h-13.142z" fill="#66c3e9" transform="matrix(.707 -.707 .707 .707 -19.215 38.904)"/><g fill="#3693cf"><circle cx="32" cy="48" r="2"/><circle cx="32" cy="32" r="3"/></g></svg>