<?xml version="1.0" encoding="UTF-8" standalone="no"?>
<!-- Created with Inkscape (http://www.inkscape.org/) -->

<svg
   xmlns:dc="http://purl.org/dc/elements/1.1/"
   xmlns:cc="http://creativecommons.org/ns#"
   xmlns:rdf="http://www.w3.org/1999/02/22-rdf-syntax-ns#"
   xmlns:svg="http://www.w3.org/2000/svg"
   xmlns="http://www.w3.org/2000/svg"
   xmlns:sodipodi="http://sodipodi.sourceforge.net/DTD/sodipodi-0.dtd"
   xmlns:inkscape="http://www.inkscape.org/namespaces/inkscape"
   version="1.1"
   id="svg10"
   xml:space="preserve"
   width="793.70667"
   height="1122.52"
   viewBox="0 0 793.70667 1122.52"
   sodipodi:docname="STMstick.svg"
   inkscape:version="0.92.3 (2405546, 2018-03-11)"><metadata
     id="metadata16"><rdf:RDF><cc:Work
         rdf:about=""><dc:format>image/svg+xml</dc:format><dc:type
           rdf:resource="http://purl.org/dc/dcmitype/StillImage" /><dc:title></dc:title></cc:Work></rdf:RDF></metadata><defs
     id="defs14"><clipPath
       clipPathUnits="userSpaceOnUse"
       id="clipPath26"><path
         d="M 0,841.89 H 595.28 V 0 H 0 Z"
         id="path24"
         inkscape:connector-curvature="0" /></clipPath></defs><sodipodi:namedview
     pagecolor="#ffffff"
     bordercolor="#666666"
     borderopacity="1"
     objecttolerance="10"
     gridtolerance="10"
     guidetolerance="10"
     inkscape:pageopacity="0"
     inkscape:pageshadow="2"
     inkscape:window-width="1366"
     inkscape:window-height="705"
     id="namedview12"
     showgrid="false"
     inkscape:zoom="0.47927876"
     inkscape:cx="396.85333"
     inkscape:cy="561.26001"
     inkscape:window-x="-8"
     inkscape:window-y="-8"
     inkscape:window-maximized="1"
     inkscape:current-layer="g18" /><g
     id="g18"
     inkscape:groupmode="layer"
     inkscape:label="STMicroelectronics"
     transform="matrix(1.3333333,0,0,-1.3333333,0,1122.52)"><g
       id="g20"
       transform="matrix(2.224546,0,0,2.5604458,-367.80268,-651.07806)"><g
         id="g22"
         clip-path="url(#clipPath26)"><g
           id="g28"
           transform="translate(333.2441,497.5146)"><path
             d="m 0,0 c 25.797,0 51.593,0 77.389,0 0.48,0 0.962,0.019 1.439,-0.015 1.596,-0.112 2.358,-1.164 1.771,-2.636 -1.733,-4.345 -3.533,-8.663 -5.309,-12.991 -0.325,-0.793 -0.946,-1.159 -1.781,-1.187 -0.48,-0.016 -0.96,-0.011 -1.44,-0.011 -45.793,-0.001 -91.587,0.013 -137.38,-0.02 -6.307,-0.005 -12.2,-1.575 -17.267,-5.53 -5.148,-4.019 -8.243,-9.331 -9.31,-15.73 -1.268,-7.604 -0.157,-14.782 4.756,-20.987 2.438,-3.079 5.569,-5.505 8.404,-8.205 4.313,-4.108 8.715,-8.121 13.079,-12.174 2.05,-1.906 4.117,-3.792 6.14,-5.726 1.343,-1.285 2.283,-2.816 2.148,-4.759 -0.17,-2.435 -2.114,-4.115 -4.928,-4.348 -0.438,-0.036 -0.879,-0.02 -1.319,-0.02 h -68.511 c -0.279,0 -0.56,-0.004 -0.839,0.002 -2.036,0.049 -2.764,1.102 -1.989,2.989 2.522,6.139 5.068,12.268 7.613,18.398 6.379,15.361 12.742,30.729 19.158,46.075 1.696,4.055 3.019,8.29 5.245,12.094 5.074,8.667 12.68,13.503 22.674,14.604 1.637,0.18 3.271,0.184 4.908,0.184 C -50.232,0.01 -25.116,0.009 0,0.009 Z"
             style="fill:none;stroke:#000000;stroke-width:2;stroke-linecap:butt;stroke-linejoin:miter;stroke-miterlimit:10;stroke-dasharray:none;stroke-opacity:1"
             id="path30"
             inkscape:connector-curvature="0" /></g><g
           id="g32"
           transform="translate(304.9102,459.5947)"><path
             d="m 0,0 c 12.076,0 24.152,0 36.229,-0.001 0.479,0 0.961,0.02 1.438,-0.023 1.625,-0.146 2.327,-1.247 1.712,-2.765 -1.65,-4.076 -3.323,-8.143 -5.006,-12.205 -8.152,-19.686 -16.31,-39.37 -24.469,-59.054 -1.009,-2.435 -2.262,-3.269 -4.865,-3.27 -9.078,-0.002 -18.155,-0.001 -27.232,0 -0.24,0 -0.481,-0.013 -0.72,0.005 -0.383,0.029 -0.88,-0.083 -1.004,0.428 -0.127,0.525 0.372,0.653 0.712,0.821 2.905,1.436 5.424,3.39 7.594,5.777 5.167,5.684 7.992,12.352 7.723,20.068 -0.239,6.845 -3.015,12.784 -7.916,17.5 -7.543,7.261 -15.314,14.283 -22.987,21.41 -0.761,0.708 -1.505,1.434 -2.254,2.154 -1.68,1.615 -2.41,3.557 -1.492,5.761 0.912,2.187 2.763,3.25 5.109,3.383 1.116,0.063 2.239,0.017 3.358,0.017 11.357,0 22.713,0 34.07,0 z"
             style="fill:none;stroke:#000000;stroke-width:2;stroke-linecap:butt;stroke-linejoin:miter;stroke-miterlimit:10;stroke-dasharray:none;stroke-opacity:1"
             id="path34"
             inkscape:connector-curvature="0" /></g><g
           id="g36"
           transform="translate(383.3477,459.5947)"><path
             d="m 0,0 c 4.038,0 8.076,0.002 12.115,0 2.908,-0.002 3.527,-0.905 2.403,-3.623 C 8.057,-19.249 1.6,-34.875 -4.901,-50.484 c -1.842,-4.423 -3.26,-9.057 -5.857,-13.123 -4.936,-7.731 -12.015,-12.25 -21.113,-13.462 -4.49,-0.599 -9.024,-0.184 -13.536,-0.221 -1.598,-0.013 -2.233,1.178 -1.574,2.775 3.514,8.538 7.043,17.071 10.574,25.603 5.684,13.74 11.373,27.479 17.061,41.218 0.612,1.477 1.29,2.929 1.84,4.428 0.85,2.317 2.572,3.267 4.911,3.279 C -8.396,0.035 -4.198,0.02 0,0.02 Z"
             style="fill:none;stroke:#000000;stroke-width:2;stroke-linecap:butt;stroke-linejoin:miter;stroke-miterlimit:10;stroke-dasharray:none;stroke-opacity:1"
             id="path38"
             inkscape:connector-curvature="0" /></g><g
           id="g40"
           transform="translate(287.5239,350.8975)"><path
             d="m 0,0 c 0,-3.584 2.564,-6.228 6.032,-6.22 3.41,0.007 5.977,2.726 5.96,6.313 C 11.974,3.509 9.293,6.304 6.006,6.332 2.715,6.36 0,3.498 0,0 Z m 11.846,-6.305 c -4.649,-3.376 -9.16,-3.066 -12.557,0.79 -2.791,3.169 -2.641,8.276 0.401,11.496 2.491,2.637 7.596,4.393 12.046,0.346 0.291,0.139 0.213,0.419 0.191,0.63 -0.104,1.029 0.402,1.277 1.348,1.284 0.981,0.006 1.213,-0.409 1.208,-1.299 -0.028,-4.675 0.017,-9.352 -0.025,-14.029 -0.04,-4.516 -3.45,-7.654 -8.451,-7.475 -3.273,0.118 -5.961,1.47 -7.439,4.598 -0.241,0.512 -0.901,1.114 -0.193,1.696 0.609,0.501 2.215,0.054 2.605,-0.686 0.922,-1.747 2.341,-2.776 4.274,-3.151 3.756,-0.73 6.903,1.969 6.592,5.8 z"
             style="fill:none;stroke:#000000;stroke-width:0.75;stroke-linecap:butt;stroke-linejoin:miter;stroke-miterlimit:10;stroke-dasharray:none;stroke-opacity:1"
             id="path42"
             inkscape:connector-curvature="0" /></g><g
           id="g44"
           transform="translate(305.2236,350.8574)"><path
             d="M 0,0 C -0.001,2.319 -0.012,4.64 0.008,6.958 0.012,7.44 -0.159,8.165 0.588,8.186 1.242,8.203 2.166,8.758 2.51,7.649 2.656,7.178 2.824,7.359 3.097,7.504 c 3.538,1.868 5.507,1.659 8.56,-0.997 0.66,-0.574 0.811,0.024 1.106,0.315 2.98,2.937 8.144,2.389 10.341,-1.112 0.629,-1.002 0.991,-2.108 1.002,-3.289 0.031,-3.158 -0.003,-6.318 0.037,-9.477 0.01,-0.9 -0.346,-1.181 -1.207,-1.173 -0.839,0.009 -1.367,0.137 -1.35,1.166 0.043,2.678 0.009,5.358 0.014,8.038 10e-4,0.722 -0.058,1.433 -0.225,2.139 C 20.884,5.202 19.574,6.259 17.451,6.256 15.352,6.254 14.024,5.15 13.564,3.071 13.188,1.368 13.365,-0.354 13.337,-2.068 c -0.027,-1.68 -0.044,-3.361 0.005,-5.038 0.028,-0.958 -0.451,-1.125 -1.258,-1.119 -0.781,0.006 -1.306,0.121 -1.294,1.093 0.032,2.799 0,5.599 0.012,8.398 0.003,0.849 -0.096,1.678 -0.394,2.471 C 9.707,5.609 8.314,6.414 6.133,6.238 4.437,6.101 3.166,4.922 2.785,3.137 2.457,1.597 2.533,0.034 2.531,-1.523 2.53,-3.362 2.5,-5.203 2.542,-7.041 2.563,-7.927 2.227,-8.244 1.35,-8.228 0.526,-8.213 -0.035,-8.121 -0.014,-7.077 0.033,-4.719 0.001,-2.359 0,0 Z"
             style="fill:none;stroke:#000000;stroke-width:0.75;stroke-linecap:butt;stroke-linejoin:miter;stroke-miterlimit:10;stroke-dasharray:none;stroke-opacity:1"
             id="path46"
             inkscape:connector-curvature="0" /></g><g
           id="g48"
           transform="translate(407.5234,357.1162)"><path
             d="m 0,0 c -3.693,-0.004 -6.212,-2.549 -6.206,-6.271 0.006,-3.592 2.587,-6.174 6.189,-6.19 3.53,-0.016 6.194,2.659 6.193,6.216 C 6.175,-2.708 3.493,0.003 0,0 Z m 5.995,0.07 c 0,2.281 0.04,4.264 -0.016,6.245 C 5.95,7.398 6.328,7.806 7.439,7.769 8.392,7.737 8.685,7.37 8.682,6.47 8.661,-0.083 8.67,-6.635 8.671,-13.188 c 0,-0.675 -0.015,-1.333 -0.972,-1.277 -0.746,0.043 -1.708,-0.297 -1.706,1.024 10e-4,1.077 -0.496,0.585 -0.931,0.275 -3.621,-2.574 -8.166,-2.273 -11.301,0.745 -3.216,3.097 -3.482,8.32 -0.598,11.754 C -3.89,2.844 1.316,3.514 4.925,0.849 5.18,0.661 5.437,0.477 5.995,0.07 Z"
             style="fill:none;stroke:#000000;stroke-width:0.75;stroke-linecap:butt;stroke-linejoin:miter;stroke-miterlimit:10;stroke-dasharray:none;stroke-opacity:1"
             id="path50"
             inkscape:connector-curvature="0" /></g><g
           id="g52"
           transform="translate(388.002,352.3223)"><path
             d="M 0,0 C 1.56,0 3.118,-0.007 4.678,0.002 5.954,0.009 6.064,0.2 5.526,1.394 4.522,3.617 2.429,4.865 -0.184,4.796 -2.515,4.734 -4.608,3.24 -5.477,1.102 -5.84,0.207 -5.562,-0.032 -4.677,-0.011 -3.119,0.027 -1.559,0 0,0 Z m 1.333,-2.462 c -1.998,0 -3.997,-0.045 -5.992,0.019 -1.078,0.034 -1.262,-0.376 -0.891,-1.271 0.896,-2.158 2.46,-3.565 4.787,-3.881 2.458,-0.333 4.469,0.551 5.884,2.651 0.24,0.355 0.316,0.889 0.798,0.997 0.698,0.156 1.555,0.376 2.069,-0.124 C 8.49,-4.559 7.848,-5.179 7.58,-5.669 5.593,-9.315 1.25,-10.974 -2.703,-9.631 c -3.86,1.311 -6.396,5.407 -5.761,9.312 0.702,4.325 4.197,7.509 8.314,7.574 4.225,0.066 7.903,-2.889 8.684,-6.977 0.511,-2.674 0.457,-2.739 -2.286,-2.739 -1.639,0 -3.276,0 -4.915,-0.001 z"
             style="fill:none;stroke:#000000;stroke-width:0.75;stroke-linecap:butt;stroke-linejoin:miter;stroke-miterlimit:10;stroke-dasharray:none;stroke-opacity:1"
             id="path54"
             inkscape:connector-curvature="0" /></g><g
           id="g56"
           transform="translate(340.3857,352.3252)"><path
             d="M 0,0 C 1.64,0 3.278,0.013 4.917,-0.005 5.729,-0.014 5.866,0.318 5.609,1.04 4.825,3.236 2.611,4.77 0.124,4.79 -2.477,4.812 -4.706,3.344 -5.54,1.118 -5.836,0.329 -5.649,-0.01 -4.797,-0.003 -3.198,0.011 -1.599,0.001 0,0 Z m 1.255,-2.464 c -2.038,-10e-4 -4.078,-0.036 -6.116,0.015 -0.964,0.024 -1.115,-0.359 -0.802,-1.148 0.859,-2.174 2.411,-3.617 4.721,-3.979 2.437,-0.381 4.542,0.394 5.907,2.548 0.499,0.788 1.038,1.086 1.934,1.031 1.237,-0.075 1.364,-0.224 0.838,-1.312 -1.704,-3.531 -5.786,-5.474 -9.638,-4.588 -3.911,0.899 -6.611,4.302 -6.645,8.312 -0.031,3.764 1.718,6.458 5.042,8.024 3.332,1.57 6.497,0.979 9.251,-1.428 C 7.534,3.448 8.46,1.406 8.643,-0.985 8.731,-2.162 8.266,-2.524 7.131,-2.483 5.175,-2.413 3.214,-2.464 1.255,-2.464 Z"
             style="fill:none;stroke:#000000;stroke-width:0.75;stroke-linecap:butt;stroke-linejoin:miter;stroke-miterlimit:10;stroke-dasharray:none;stroke-opacity:1"
             id="path58"
             inkscape:connector-curvature="0" /></g><g
           id="g60"
           transform="translate(255.0835,344.6777)"><path
             d="M 0,0 C 3.613,-0.021 6.223,2.543 6.239,6.129 6.255,9.715 3.627,12.479 0.171,12.511 -3.432,12.545 -6.125,9.88 -6.143,6.261 -6.161,2.688 -3.543,0.02 0,0 Z m 6.154,12.442 c 0.023,0.394 0.069,0.632 0.043,0.863 -0.116,1.049 0.51,1.14 1.333,1.147 C 8.361,14.458 8.769,14.238 8.763,13.31 8.732,8.597 8.73,3.884 8.766,-0.828 8.773,-1.795 8.389,-2.063 7.486,-2.051 6.625,-2.04 6.073,-1.869 6.196,-0.856 6.223,-0.633 6.166,-0.399 6.131,0.023 3.748,-2.135 1.108,-2.911 -1.906,-2.223 c -2.059,0.471 -3.784,1.494 -5.061,3.189 -2.653,3.523 -2.287,8.436 0.829,11.488 3.292,3.224 8.025,3.263 12.292,-0.012 z"
             style="fill:none;stroke:#000000;stroke-width:0.75;stroke-linecap:butt;stroke-linejoin:miter;stroke-miterlimit:10;stroke-dasharray:none;stroke-opacity:1"
             id="path62"
             inkscape:connector-curvature="0" /></g><g
           id="g64"
           transform="translate(223.1763,351.8643)"><path
             d="M 0,0 C 1.598,0 3.196,-0.012 4.794,0.005 5.957,0.017 6.093,0.225 5.686,1.257 4.804,3.495 2.362,5.043 -0.227,5.004 -2.551,4.969 -4.833,3.308 -5.638,1.105 -5.912,0.358 -5.818,-0.023 -4.914,-0.007 -3.276,0.023 -1.638,0.002 0,0 Z m 1.124,-1.971 c -1.998,0 -3.997,-0.02 -5.994,0.01 -0.901,0.014 -1.129,-0.332 -0.869,-1.17 0.678,-2.186 2.177,-3.507 4.34,-4.054 2.397,-0.605 4.433,0.164 6.046,1.961 0.529,0.589 1.025,0.976 1.821,0.887 0.344,-0.038 0.776,0.124 0.99,-0.244 C 7.67,-4.946 7.367,-5.271 7.185,-5.563 5.992,-7.488 4.287,-8.735 2.094,-9.283 -2.494,-10.43 -7.024,-7.704 -8.148,-3.142 -9.241,1.294 -6.458,5.871 -1.972,7.018 3.105,8.315 8.372,4.232 8.393,-0.997 8.396,-1.856 7.914,-1.972 7.238,-1.969 5.2,-1.959 3.162,-1.966 1.124,-1.966 Z"
             style="fill:none;stroke:#000000;stroke-width:0.75;stroke-linecap:butt;stroke-linejoin:miter;stroke-miterlimit:10;stroke-dasharray:none;stroke-opacity:1"
             id="path66"
             inkscape:connector-curvature="0" /></g><g
           id="g68"
           transform="translate(354.3906,357.7285)"><path
             d="m 0,0 c 1.899,1.614 3.938,2.13 6.173,1.755 3.561,-0.597 5.743,-3.33 5.891,-7.507 0.097,-2.714 -0.005,-5.435 0.037,-8.151 0.016,-1.098 -0.585,-1.181 -1.454,-1.201 -0.96,-0.02 -1.251,0.381 -1.243,1.285 0.027,2.797 0.049,5.595 -0.014,8.391 -0.069,2.954 -1.933,4.813 -4.698,4.812 -2.503,-0.001 -4.218,-1.509 -4.56,-4.011 -0.418,-3.064 -0.147,-6.144 -0.19,-9.218 -0.013,-0.929 -0.308,-1.256 -1.249,-1.262 -0.993,-0.007 -1.324,0.347 -1.316,1.327 0.034,4.515 0.001,9.032 0.029,13.548 0.004,0.594 -0.353,1.486 0.733,1.59 C -0.959,1.446 0.063,1.639 0,0 Z"
             style="fill:none;stroke:#000000;stroke-width:0.75;stroke-linecap:butt;stroke-linejoin:miter;stroke-miterlimit:10;stroke-dasharray:none;stroke-opacity:1"
             id="path70"
             inkscape:connector-curvature="0" /></g><g
           id="g72"
           transform="translate(280.0381,344.1855)"><path
             d="m 0,0 c -3.409,-2.58 -7.131,-2.606 -9.822,-0.246 -1.525,1.338 -2.118,3.095 -2.167,5.021 -0.076,2.996 0.003,5.994 -0.04,8.991 -0.014,1.009 0.477,1.179 1.333,1.18 0.842,0 1.24,-0.236 1.224,-1.155 -0.041,-2.356 -0.005,-4.715 -0.015,-7.072 -0.004,-0.842 0.055,-1.672 0.195,-2.503 0.394,-2.321 1.682,-3.588 3.845,-3.735 2.596,-0.174 4.426,0.98 5.074,3.244 0.242,0.844 0.36,1.714 0.356,2.602 -0.011,2.398 0.03,4.795 -0.015,7.192 -0.018,0.983 0.219,1.45 1.33,1.441 1.078,-0.009 1.236,-0.502 1.23,-1.402 C 2.501,9.043 2.525,4.527 2.506,0.013 2.504,-0.64 2.794,-1.49 1.601,-1.55 0.573,-1.602 -0.181,-1.463 0,0 Z"
             style="fill:none;stroke:#000000;stroke-width:0.75;stroke-linecap:butt;stroke-linejoin:miter;stroke-miterlimit:10;stroke-dasharray:none;stroke-opacity:1"
             id="path74"
             inkscape:connector-curvature="0" /></g><g
           id="g76"
           transform="translate(208.0967,342.7031)"><path
             d="m 0,0 c -0.879,0 -1.759,0.017 -2.637,-0.005 -0.801,-0.019 -1.029,0.407 -1.022,1.129 0.007,0.679 0.254,1.008 0.973,1.066 1.666,0.136 1.666,0.164 1.667,1.789 0.002,2.876 -0.034,5.754 0.019,8.631 0.02,1.08 -0.224,1.699 -1.448,1.553 -0.747,-0.089 -1.204,0.168 -1.219,1.049 -0.014,0.921 0.422,1.226 1.249,1.144 1.002,-0.099 1.311,0.442 1.404,1.339 0.278,2.681 1.642,4.124 4.24,4.554 0.502,0.083 1.114,0.269 1.249,-0.488 C 4.597,21.085 4.659,20.362 3.715,20.15 2.434,19.862 1.561,19.169 1.312,17.804 1.096,16.611 1.235,16.422 2.478,16.357 3.049,16.328 3.742,16.504 3.83,15.589 3.914,14.712 3.768,14.028 2.663,14.161 1.476,14.303 1.164,13.757 1.187,12.64 1.247,9.644 1.241,6.645 1.189,3.648 1.172,2.594 1.459,2.049 2.601,2.179 3.414,2.271 3.865,1.979 3.858,1.046 3.851,0.046 3.264,-0.024 2.518,-0.009 1.679,0.008 0.839,-0.006 0,-0.006 Z"
             style="fill:none;stroke:#000000;stroke-width:0.75;stroke-linecap:butt;stroke-linejoin:miter;stroke-miterlimit:10;stroke-dasharray:none;stroke-opacity:1"
             id="path78"
             inkscape:connector-curvature="0" /></g><g
           id="g80"
           transform="translate(374.6758,349.7998)"><path
             d="m 0,0 c -0.001,-1.918 -0.036,-3.837 0.014,-5.754 0.026,-0.996 -0.258,-1.439 -1.351,-1.432 -1.044,0.008 -1.403,0.351 -1.391,1.393 0.043,3.677 0.017,7.353 0.016,11.029 -10e-4,1.756 -0.003,1.778 -1.772,1.76 -0.913,-0.009 -1.694,-0.01 -1.598,1.278 0.057,0.766 0.353,1.025 1.104,1.052 2.267,0.082 2.265,0.108 2.266,2.344 0.001,0.759 0.032,1.519 -0.002,2.277 -0.043,0.941 0.473,1.139 1.278,1.121 0.769,-0.017 1.469,0.003 1.438,-1.082 C -0.03,12.829 0.033,11.668 -0.01,10.511 -0.042,9.658 0.231,9.223 1.148,9.309 1.624,9.353 2.108,9.287 2.586,9.319 3.408,9.375 3.843,9.121 3.854,8.192 3.866,7.206 3.407,6.996 2.531,6.991 0,6.979 0,6.95 0,4.437 0.001,2.958 0,1.479 0,0 Z"
             style="fill:none;stroke:#000000;stroke-width:0.75;stroke-linecap:butt;stroke-linejoin:miter;stroke-miterlimit:10;stroke-dasharray:none;stroke-opacity:1"
             id="path82"
             inkscape:connector-curvature="0" /></g><g
           id="g84"
           transform="translate(189.6094,354.7129)"><path
             d="m 0,0 c 0,-2.796 0.028,-5.593 -0.014,-8.388 -0.015,-0.972 0.208,-1.554 1.32,-1.444 0.814,0.081 1.143,-0.321 1.131,-1.139 -0.013,-0.783 -0.374,-1.054 -1.11,-1.047 -1.757,0.018 -3.515,0.024 -5.272,-0.003 -0.806,-0.012 -1.153,0.3 -1.153,1.129 10e-4,0.877 0.464,1.141 1.212,1.059 1.178,-0.129 1.497,0.404 1.487,1.524 -0.047,4.913 -0.043,9.827 -0.002,14.74 0.009,1.066 -0.294,1.59 -1.422,1.462 -0.851,-0.098 -1.239,0.279 -1.225,1.17 0.013,0.896 0.512,1.054 1.246,1.037 0.838,-0.021 1.68,-0.047 2.515,0.005 C -0.269,10.171 0.024,9.7 0.012,8.748 -0.025,5.832 -0.001,2.916 0,0 Z"
             style="fill:none;stroke:#000000;stroke-width:0.75;stroke-linecap:butt;stroke-linejoin:miter;stroke-miterlimit:10;stroke-dasharray:none;stroke-opacity:1"
             id="path86"
             inkscape:connector-curvature="0" /></g><g
           id="g88"
           transform="translate(199.6899,351.8799)"><path
             d="m 0,0 c 0,-1.88 0.033,-3.761 -0.013,-5.64 -0.023,-0.946 0.256,-1.456 1.286,-1.354 0.836,0.082 1.385,-0.135 1.359,-1.161 -0.026,-1.007 -0.64,-1.036 -1.373,-1.032 -1.72,0.013 -3.44,0.026 -5.159,-0.002 -0.817,-0.014 -1.157,0.316 -1.147,1.136 0.009,0.771 0.351,1.146 1.095,1.05 1.359,-0.175 1.591,0.53 1.568,1.697 -0.059,2.959 -0.048,5.92 -0.005,8.879 0.015,0.999 -0.263,1.531 -1.349,1.426 -0.826,-0.08 -1.129,0.347 -1.117,1.154 0.012,0.796 0.4,1.042 1.126,1.031 C 0.746,7.112 -0.09,7.806 -0.004,3.72 0.021,2.48 0,1.24 0,0 Z"
             style="fill:none;stroke:#000000;stroke-width:0.75;stroke-linecap:butt;stroke-linejoin:miter;stroke-miterlimit:10;stroke-dasharray:none;stroke-opacity:1"
             id="path90"
             inkscape:connector-curvature="0" /></g><g
           id="g92"
           transform="translate(241.7114,345.0439)"><path
             d="m 0,0 c -0.03,-1.638 -1.307,-2.859 -2.925,-2.799 -1.554,0.058 -2.896,1.459 -2.838,2.966 0.058,1.536 1.472,2.856 2.997,2.799 C -1.129,2.903 0.03,1.661 0,0 Z"
             style="fill:none;stroke:#000000;stroke-width:0.75;stroke-linecap:butt;stroke-linejoin:miter;stroke-miterlimit:10;stroke-dasharray:none;stroke-opacity:1"
             id="path94"
             inkscape:connector-curvature="0" /></g><g
           id="g96"
           transform="translate(199.2085,363.332)"><path
             d="m 0,0 c 0.036,-0.68 0.087,-1.503 -1.223,-1.453 -0.863,0.032 -1.257,0.331 -1.195,1.199 0.02,0.276 0.018,0.557 -0.002,0.833 -0.064,0.886 0.152,1.416 1.225,1.415 1.099,0 1.254,-0.583 1.196,-1.441 C -0.007,0.434 0,0.314 0,0 Z"
             style="fill:none;stroke:#000000;stroke-width:0.75;stroke-linecap:butt;stroke-linejoin:miter;stroke-miterlimit:10;stroke-dasharray:none;stroke-opacity:1"
             id="path98"
             inkscape:connector-curvature="0" /></g></g></g></g></svg>