<?xml version="1.0" encoding="UTF-8"?>
<svg xmlns="http://www.w3.org/2000/svg" viewBox="0 0 64 64" width="512" height="512"><g id="Layer_15" data-name="Layer 15"><path d="M30,12H15a3,3,0,0,0-3,3V59a3,3,0,0,0,3,3H39a3,3,0,0,0,3-3V34.667Z" style="fill:#5b5b5b"/><path d="M15,12a2.983,2.983,0,0,0-.86.14A2.983,2.983,0,0,0,14,13V57a3,3,0,0,0,3,3H41a2.983,2.983,0,0,0,.86-.14A2.983,2.983,0,0,0,42,59V28L30,12Z" style="fill:#6b6b6b"/><rect x="14" y="14" width="26" height="39" style="fill:#66c3e9"/><path d="M16,41.306A10.694,10.694,0,0,0,26.694,52H40V14H16Z" style="fill:#8adef9"/><polyline points="21.999 12 24 16 30 16 30 13" style="fill:#6b6b6b"/><path d="M54,2H34a4,4,0,0,0-4,4V26a4,4,0,0,0,4,4h7l-3,7,12-7h4a4,4,0,0,0,4-4V6A4,4,0,0,0,54,2Z" style="fill:#ccc"/><path d="M33,17.222A9.778,9.778,0,0,0,42.778,27H57.859A3.977,3.977,0,0,0,58,26V6a4,4,0,0,0-4-4H34a3.977,3.977,0,0,0-1,.141Z" style="fill:#e6e6e6"/><path d="M45,56l-4.639-2.32A6.078,6.078,0,0,1,37,48.243h0A4.242,4.242,0,0,1,41.243,44h0a4.243,4.243,0,0,1,3,1.243L45,46l.757-.757a4.243,4.243,0,0,1,3-1.243h0A4.242,4.242,0,0,1,53,48.243h0a6.078,6.078,0,0,1-3.361,5.437Z" style="fill:#e73844"/><rect x="35" y="13" width="6" height="10" style="fill:#0059be"/><path d="M41,14.2l2.439-1.952A4.16,4.16,0,0,0,45,9h0a2,2,0,0,1,2-2h0a2,2,0,0,1,2,2h0a12.343,12.343,0,0,1-.632,3.9L48,14h2a3,3,0,0,1,3,3h0v3a3,3,0,0,1-3,3H45.828A6.826,6.826,0,0,1,41,21h0" style="fill:#d08d78"/><path d="M48.757,44a4.243,4.243,0,0,0-3,1.243L45,46l-.757-.757a4.2,4.2,0,0,0-4.819-.819A4.2,4.2,0,0,0,39,46.243a6.078,6.078,0,0,0,3.361,5.437h0a10.368,10.368,0,0,0,9.278,0h0c.166-.082.318-.183.473-.279A6.07,6.07,0,0,0,53,48.243,4.242,4.242,0,0,0,48.757,44Z" style="fill:#ff4d55"/><rect x="16.379" y="43.257" width="4.243" height="8.485" transform="translate(-28.169 26.994) rotate(-45)" style="fill:#ccc"/><path d="M15,45l2,2a4.229,4.229,0,0,0,4.816.816L17,43Z" style="fill:#e6e6e6"/><polyline points="26.475 38.469 18 42 13 47 7 41 12 36 15.531 27.525" style="fill:#e6e6e6"/><path d="M24.357,36.351l-8.826-8.826L12,36,8.5,39.5l1.035,1.035a4.9,4.9,0,0,0,6.93,0h0A10.973,10.973,0,0,1,20,38.165Z" style="fill:#f2f2f2"/><path d="M29.379,35.379a2.12,2.12,0,0,1,.621,1.5h0A2.122,2.122,0,0,1,27.879,39h0a2.12,2.12,0,0,1-1.5-.621L15.621,27.621a2.12,2.12,0,0,1-.621-1.5h0A2.122,2.122,0,0,1,17.121,24h0a2.12,2.12,0,0,1,1.5.621Z" style="fill:#e73844"/><path d="M8,42,6.828,43.172a2.828,2.828,0,0,0-.828,2H6A2.828,2.828,0,0,0,8.828,48h0a2.828,2.828,0,0,0,2-.828L12,46" style="fill:#ccc"/><path d="M18.621,24.621a2.11,2.11,0,0,0-3.359.5,2.121,2.121,0,0,0,.359.5L26.379,36.379a2.11,2.11,0,0,0,3.359-.5,2.1,2.1,0,0,0-.359-.5Z" style="fill:#ff4d55"/><rect x="8.964" y="37.257" width="7.071" height="8.485" transform="translate(-25.684 20.994) rotate(-45)" style="fill:#e73844"/><path d="M16.465,40.535c.011-.012.025-.022.037-.033L12,36,8.5,39.5l1.035,1.035A4.9,4.9,0,0,0,16.465,40.535Z" style="fill:#ff4d55"/><path d="M6.828,43.172a2.813,2.813,0,0,0-.637,1,2.82,2.82,0,0,0,4.637,1L11,45,8,42Z" style="fill:#e6e6e6"/><path d="M37,16.817a4.176,4.176,0,0,0,4,4.165V13H37Z" style="fill:#006bdb"/><path d="M50,14H48l.368-1.1A12.343,12.343,0,0,0,49,9a2,2,0,0,0-4,0,4.16,4.16,0,0,1-1.562,3.249L41,14.2V19a6.826,6.826,0,0,0,4.828,2H50a3,3,0,0,0,3-3V17A3,3,0,0,0,50,14Z" style="fill:#f2b9a1"/></g></svg>
