<svg height="512" viewBox="0 0 64 64" width="512" xmlns="http://www.w3.org/2000/svg"><g id="Layer_31" data-name="Layer 31"><ellipse cx="32" cy="42" fill="#419bd7" rx="30" ry="10"/><ellipse cx="32" cy="40" fill="#4aaee3" rx="22" ry="8"/><ellipse cx="32" cy="40" fill="#7fcdf2" rx="14" ry="4"/><path d="m38 34c0-3.314-6-12-6-12s-6 8.686-6 12a6 6 0 0 0 12 0z" fill="#307abe"/><path d="m28 32a5.992 5.992 0 0 0 9.119 5.119 5.968 5.968 0 0 0 .881-3.119c0-2.833-4.374-9.575-5.647-11.477-1.776 2.829-4.353 7.303-4.353 9.477z" fill="#419bd7"/><path d="m45 20a3 3 0 0 0 -6 0 43.492 43.492 0 0 0 1 6s5-4.343 5-6z" fill="#4aaee3"/><path d="m26 18c0-1.657-3-6-3-6s-3 4.343-3 6a3 3 0 0 0 6 0z" fill="#307abe"/><path d="m20 18a2.98 2.98 0 0 0 .758 1.976c.082.006.159.024.242.024a3 3 0 0 0 3-3 10.849 10.849 0 0 0 -1.693-3.947c-.886 1.393-2.307 3.806-2.307 4.947z" fill="#419bd7"/><path d="m45 20a2.98 2.98 0 0 0 -.758-1.976c-.082-.006-.159-.024-.242-.024a3 3 0 0 0 -3 3 24.047 24.047 0 0 0 .5 3.618c1.472-1.418 3.5-3.562 3.5-4.618z" fill="#7fcdf2"/></g></svg>