<?xml version="1.0" standalone="no"?>
<!DOCTYPE svg PUBLIC "-//W3C//DTD SVG 1.1//EN" "http://www.w3.org/Graphics/SVG/1.1/DTD/svg11.dtd">
<svg xmlns="http://www.w3.org/2000/svg" id="Layer_1" enable-background="new 0 0 511.998 511.998" height="511.99798583984375" viewBox="0 0 511.998 511.998" width="511.99798583984375"><g><g><path d="m256.011 511.998c-45.595 0-89.074-17.114-122.43-48.191l20.45-21.949c55.002 53.159 148.953 53.158 203.957.003l20.449 21.951c-33.356 31.073-76.834 48.186-122.426 48.186z" fill="#98f9ff"/></g><g><path d="m256.011 459.332c-32.228 0-62.961-12.098-86.54-34.063l20.449-21.951c35.645 34.452 96.534 34.451 132.178.003l20.45 21.949c-23.576 21.965-54.309 34.062-86.537 34.062z" fill="#98f9ff"/></g><g><path d="m256.011 407.216c-18.994 0-37.113-7.136-51.019-20.092l20.45-21.949c16.502 15.946 44.635 15.947 61.137.001l20.449 21.951c-13.905 12.954-32.024 20.089-51.017 20.089z" fill="#98f9ff"/></g><path d="m120.754 0v302.075l8.277 4.15c84.256 42.271 169.686 42.279 253.938-.001l8.275-4.15v-302.074z" fill="#f4f1f1"/><path d="m255.999 0v337.966h.007c42.245.001 84.968-10.679 126.962-31.741l8.275-4.15v-302.075z" fill="#eceae7"/><path d="m180.758 70.004h150.482v130.007h-150.482z" fill="#bee75e"/><g><path d="m240.999 237.076h30v30.002h-30z" fill="#ff7c48"/></g><g fill="#7dd5f4"><path d="m378.437 463.812-20.449-21.951c-27.787 25.886-64.009 40.141-101.989 40.138v30c45.595.002 89.079-17.111 122.438-48.187z"/><path d="m342.549 425.27-20.45-21.949c-18.008 16.776-41.483 26.015-66.1 26.012v30c32.232.002 62.97-12.095 86.55-34.063z"/><path d="m307.028 387.127-20.449-21.951c-8.337 7.767-19.198 12.043-30.58 12.04v30c18.997.003 37.121-7.132 51.029-20.089z"/></g><path d="m255.999 70.004h75.241v130.007h-75.241z" fill="#00da80"/><path d="m255.999 237.076h15v30.002h-15z" fill="#ff415b"/></g></svg>