<?xml version="1.0" encoding="iso-8859-1"?>
<!-- Generator: Adobe Illustrator 22.1.0, SVG Export Plug-In . SVG Version: 6.00 Build 0)  -->
<svg xmlns="http://www.w3.org/2000/svg" xmlns:xlink="http://www.w3.org/1999/xlink" version="1.1" id="Layer_3" x="0px" y="0px" viewBox="0 0 64 64" style="enable-background:new 0 0 64 64;" xml:space="preserve" width="512" height="512">
<g>
	<path style="fill:#EBB652;" d="M61.168,48.675L36.595,9.541C35.603,7.96,33.867,7,32,7h0c-1.867,0-3.603,0.96-4.595,2.541   L2.832,48.675C2.288,49.541,2,50.542,2,51.565v0C2,54.567,4.433,57,7.435,57h49.13C59.567,57,62,54.567,62,51.565v0   C62,50.542,61.712,49.541,61.168,48.675z"/>
	<path style="fill:#F7CA6A;" d="M36.595,9.541C35.603,7.96,33.867,7,32,7s-3.603,0.96-4.595,2.541L4.265,46.393   C8.626,49.302,13.864,51,19.5,51c14.368,0,26.155-11.021,27.387-25.069L36.595,9.541z"/>
	<circle style="fill:#9D8980;" cx="24" cy="30" r="3"/>
	<path style="fill:#B9ABA5;" d="M39,26c-0.05,0-0.097,0.012-0.146,0.015C38.94,25.689,39,25.353,39,25   c0-1.704-1.07-3.149-2.571-3.725C36.782,20.589,37,19.824,37,19c0-2.761-2.239-5-5-5s-5,2.239-5,5c0,2.476,1.804,4.518,4.167,4.916   C31.069,24.263,31,24.622,31,25c0,2.209,1.791,4,4,4c0.353,0,0.689-0.06,1.015-0.146C36.012,28.903,36,28.95,36,29   c0,1.657,1.343,3,3,3s3-1.343,3-3S40.657,26,39,26z"/>
	<g>
		<path style="fill:#657B88;" d="M21,50c-3.309,0-6-3.14-6-7s2.691-7,6-7c2.167,0,4.171,1.366,5.232,3.566l-1.802,0.868    C23.706,38.933,22.392,38,21,38c-2.206,0-4,2.243-4,5s1.794,5,4,5c1.392,0,2.706-0.933,3.43-2.434l1.802,0.868    C25.171,48.634,23.167,50,21,50z"/>
	</g>
	<g>
		<path style="fill:#657B88;" d="M34,50c-3.309,0-6-3.14-6-7s2.691-7,6-7s6,3.14,6,7S37.309,50,34,50z M34,38c-2.206,0-4,2.243-4,5    s1.794,5,4,5s4-2.243,4-5S36.206,38,34,38z"/>
	</g>
	<g>
		<path style="fill:#657B88;" d="M48,54h-5c-0.552,0-1-0.448-1-1c0-1.565,0.748-3.061,2-4l1.6-1.2c0.25-0.188,0.4-0.487,0.4-0.8    c0-0.551-0.449-1-1-1s-1,0.449-1,1v1h-2v-1c0-1.654,1.346-3,3-3s3,1.346,3,3c0,0.939-0.448,1.836-1.199,2.4L45.2,50.6    c-0.477,0.357-0.832,0.849-1.027,1.4H48V54z"/>
	</g>
</g>
</svg>
