<svg id="Layer_3" height="512" viewBox="0 0 64 64" width="512" xmlns="http://www.w3.org/2000/svg" data-name="Layer 3"><path d="m11 41h2v8h-2z" fill="#6bc13b"/><path d="m51 41h2v8h-2z" fill="#6bc13b"/><path d="m32 2a3 3 0 0 1 3 3v5a0 0 0 0 1 0 0h-6a0 0 0 0 1 0 0v-5a3 3 0 0 1 3-3z" fill="#78a0d4"/><path d="m33.442 8.558v-6.173a2.962 2.962 0 0 0 -1.442-.385 3 3 0 0 0 -3 3v3.558z" fill="#82abd8"/><path d="m2 62a9 9 0 0 1 6.051-8.5 4.914 4.914 0 0 1 -.051-.5 4.983 4.983 0 0 1 8.952-3.03 8.952 8.952 0 0 1 6.788-.542 9 9 0 0 1 16.52 0 8.952 8.952 0 0 1 6.788.542 4.983 4.983 0 0 1 8.952 3.03 4.914 4.914 0 0 1 -.051.5 9 9 0 0 1 6.051 8.5z" fill="#976947"/><path d="m2.519 59h52.481a2 2 0 0 0 2-2v-3.047a9.045 9.045 0 0 0 -1.051-.449 4.914 4.914 0 0 0 .051-.504 4.983 4.983 0 0 0 -8.952-3.03 8.952 8.952 0 0 0 -6.788-.542 9 9 0 0 0 -16.52 0 8.952 8.952 0 0 0 -6.788.542 4.983 4.983 0 0 0 -8.952 3.03 4.914 4.914 0 0 0 .051.5 9.028 9.028 0 0 0 -5.532 5.5z" fill="#c18e59"/><path d="m34 15v29.224a9.08 9.08 0 0 0 -4 0v-29.224" fill="#78a0d4"/><path d="m52 41a6 6 0 0 1 3.137-5.274l1.121-2.243a7.019 7.019 0 0 0 .709-2.461l-1.3.869a6.608 6.608 0 0 1 -3.667 1.109 6.608 6.608 0 0 1 -3.664-1.109l-1.3-.869a7.019 7.019 0 0 0 .709 2.461l1.121 2.243a6 6 0 0 1 3.134 5.274z" fill="#ba4753"/><path d="m47.033 31.022 1.3.869a6.608 6.608 0 0 0 3.667 1.109 6.608 6.608 0 0 0 3.664-1.109l1.3-.869q.033-.339.033-.68a7.025 7.025 0 0 0 -.9-3.442l-.687.687a4.828 4.828 0 0 1 -3.41 1.413 4.828 4.828 0 0 1 -3.414-1.414l-.686-.686a7.028 7.028 0 0 0 -.9 3.442q0 .34.033.68z" fill="#e1656e"/><path d="m56.1 26.9a6.827 6.827 0 0 0 -.5-.773l-.4-.527a4 4 0 0 0 -3.2-1.6 4 4 0 0 0 -3.2 1.6l-.395.527a7.082 7.082 0 0 0 -.505.774l.683.683a4.828 4.828 0 0 0 3.417 1.416 4.828 4.828 0 0 0 3.414-1.414z" fill="#f29b99"/><path d="m58 35h4a0 0 0 0 1 0 0 6 6 0 0 1 -6 6h-4a0 0 0 0 1 0 0 6 6 0 0 1 6-6z" fill="#559b2d"/><path d="m42 35h4a6 6 0 0 1 6 6 0 0 0 0 1 0 0h-4a6 6 0 0 1 -6-6 0 0 0 0 1 0 0z" fill="#4d8c28" transform="matrix(-1 0 0 -1 94 76)"/><path d="m12 41a6 6 0 0 1 3.137-5.274l1.121-2.243a7.019 7.019 0 0 0 .709-2.461l-1.3.869a6.608 6.608 0 0 1 -3.667 1.109 6.608 6.608 0 0 1 -3.664-1.109l-1.3-.869a7.019 7.019 0 0 0 .709 2.461l1.121 2.243a6 6 0 0 1 3.134 5.274z" fill="#ba4753"/><path d="m7.033 31.022 1.3.869a6.608 6.608 0 0 0 3.667 1.109 6.608 6.608 0 0 0 3.664-1.109l1.3-.869q.033-.339.033-.68a7.025 7.025 0 0 0 -.9-3.442l-.687.687a4.828 4.828 0 0 1 -3.41 1.413 4.828 4.828 0 0 1 -3.414-1.414l-.686-.686a7.028 7.028 0 0 0 -.9 3.442q0 .34.033.68z" fill="#e1656e"/><path d="m16.1 26.9a6.827 6.827 0 0 0 -.5-.773l-.4-.527a4 4 0 0 0 -3.2-1.6 4 4 0 0 0 -3.2 1.6l-.4.527a7.082 7.082 0 0 0 -.5.774l.683.683a4.828 4.828 0 0 0 3.417 1.416 4.828 4.828 0 0 0 3.414-1.414z" fill="#f29b99"/><path d="m18 35h4a0 0 0 0 1 0 0 6 6 0 0 1 -6 6h-4a0 0 0 0 1 0 0 6 6 0 0 1 6-6z" fill="#559b2d"/><path d="m2 35h4a6 6 0 0 1 6 6 0 0 0 0 1 0 0h-4a6 6 0 0 1 -6-6 0 0 0 0 1 0 0z" fill="#4d8c28" transform="matrix(-1 0 0 -1 14 76)"/><path d="m38 53h-2a4 4 0 0 0 -4-4v-2a6.006 6.006 0 0 1 6 6z" fill="#976947"/><path d="m54 53h-2a1 1 0 0 0 -1-1v-2a3 3 0 0 1 3 3z" fill="#976947"/><path d="m12 53h-2a3 3 0 0 1 3-3v2a1 1 0 0 0 -1 1z" fill="#976947"/><path d="m31 5h2v2h-2z" fill="#4c6cb5"/><path d="m29 10-1.379 1.379a2.12 2.12 0 0 0 -.621 1.5 2.122 2.122 0 0 0 2.121 2.121h5.758a2.122 2.122 0 0 0 2.121-2.121 2.12 2.12 0 0 0 -.621-1.5l-1.379-1.379" fill="#4c6cb5"/><g fill="#c0dafc"><path d="m41 23-1.664 2.5a2 2 0 0 0 -.336 1.106v.394a2 2 0 0 0 2 2 2 2 0 0 0 2-2v-.394a2 2 0 0 0 -.336-1.11z"/><path d="m47 11 2.5-1.664a2 2 0 0 1 1.106-.336h.394a2 2 0 0 1 2 2 2 2 0 0 1 -2 2h-.394a2 2 0 0 1 -1.11-.336z"/><path d="m41.169 6.828.589-2.941a1.991 1.991 0 0 1 .547-1.022l.278-.279a2 2 0 0 1 2.829 0 2 2 0 0 1 0 2.828l-.279.279a2 2 0 0 1 -1.022.547z"/><path d="m41.169 15.172.589 2.941a1.991 1.991 0 0 0 .547 1.022l.278.279a2 2 0 0 0 2.829 0 2 2 0 0 0 0-2.828l-.279-.279a2 2 0 0 0 -1.022-.547z"/><path d="m23 23 1.664 2.5a2 2 0 0 1 .336 1.106v.394a2 2 0 0 1 -2 2 2 2 0 0 1 -2-2v-.394a2 2 0 0 1 .336-1.11z"/><path d="m17 11-2.5-1.664a2 2 0 0 0 -1.106-.336h-.394a2 2 0 0 0 -2 2 2 2 0 0 0 2 2h.394a2 2 0 0 0 1.11-.336z"/><path d="m22.831 6.828-.589-2.941a1.991 1.991 0 0 0 -.542-1.022l-.278-.279a2 2 0 0 0 -2.829 0 2 2 0 0 0 0 2.828l.279.279a2 2 0 0 0 1.022.547z"/><path d="m22.831 15.172-.589 2.941a1.991 1.991 0 0 1 -.547 1.022l-.278.279a2 2 0 0 1 -2.829 0 2 2 0 0 1 0-2.828l.279-.279a2 2 0 0 1 1.022-.547z"/></g><path d="m30 15h2v26.5h-2z" fill="#82abd8"/><path d="m27.621 11.379a2.122 2.122 0 0 0 -.621 1.5c0 .041.01.08.012.121h5.988a2 2 0 0 0 2-2v-1h-6z" fill="#5e87ca"/></svg>