<?xml version="1.0" encoding="UTF-8" standalone="no"?>
<!-- Created with Inkscape (http://www.inkscape.org/) -->

<svg
   width="210mm"
   height="297mm"
   viewBox="0 0 210 297"
   version="1.1"
   id="svg1"
   xml:space="preserve"
   inkscape:version="1.4 (86a8ad7, 2024-10-11)"
   sodipodi:docname="Cote_borne_exemple.svg"
   xmlns:inkscape="http://www.inkscape.org/namespaces/inkscape"
   xmlns:sodipodi="http://sodipodi.sourceforge.net/DTD/sodipodi-0.dtd"
   xmlns="http://www.w3.org/2000/svg"
   xmlns:svg="http://www.w3.org/2000/svg"><sodipodi:namedview
     id="namedview1"
     pagecolor="#ffffff"
     bordercolor="#000000"
     borderopacity="0.25"
     inkscape:showpageshadow="2"
     inkscape:pageopacity="0.0"
     inkscape:pagecheckerboard="0"
     inkscape:deskcolor="#d1d1d1"
     inkscape:document-units="mm"
     inkscape:zoom="0.35411406"
     inkscape:cx="-283.80686"
     inkscape:cy="569.0257"
     inkscape:window-width="1920"
     inkscape:window-height="991"
     inkscape:window-x="-9"
     inkscape:window-y="-9"
     inkscape:window-maximized="1"
     inkscape:current-layer="layer1" /><defs
     id="defs1" /><g
     inkscape:label="Calque 1"
     inkscape:groupmode="layer"
     id="layer1"><g
       id="g1"
       transform="translate(-13.449057,8.2188679)"><path
         id="path1"
         style="fill:none;stroke:#fd0000;stroke-width:0.926512;stroke-linecap:round"
         d="M 108.71397,128.05153 A 14.244506,14.424661 0 0 1 94.46946,142.47619 14.244506,14.424661 0 0 1 80.224954,128.05153 14.244506,14.424661 0 0 1 94.46946,113.62687 14.244506,14.424661 0 0 1 108.71397,128.05153 Z" /><path
         id="path1-18"
         style="fill:none;stroke:#fd0000;stroke-width:0.740706;stroke-linecap:round"
         d="M 122.84715,37.933617 A 11.387647,11.531663 0 0 1 111.4595,49.46528 11.387647,11.531663 0 0 1 100.07186,37.933617 11.387647,11.531663 0 0 1 111.4595,26.401954 11.387647,11.531663 0 0 1 122.84715,37.933617 Z" /><path
         id="path1-1"
         style="fill:none;stroke:#fd0000;stroke-width:0.926512;stroke-linecap:round"
         d="m 143.11536,128.1459 a 14.244506,14.424661 0 0 1 -14.24451,14.42467 14.244506,14.424661 0 0 1 -14.24451,-14.42467 14.244506,14.424661 0 0 1 14.24451,-14.42466 14.244506,14.424661 0 0 1 14.24451,14.42466 z" /><path
         id="path1-5"
         style="fill:none;stroke:#fd0000;stroke-width:0.926512;stroke-linecap:round"
         d="M 125.97986,157.5948 A 14.244506,14.424661 0 0 1 111.73535,172.01946 14.244506,14.424661 0 0 1 97.490846,157.5948 14.244506,14.424661 0 0 1 111.73535,143.17014 14.244506,14.424661 0 0 1 125.97986,157.5948 Z" /><path
         id="path1-1-2"
         style="fill:none;stroke:#fd0000;stroke-width:0.926512;stroke-linecap:round"
         d="m 160.38126,157.68918 a 14.244506,14.424661 0 0 1 -14.24451,14.42466 14.244506,14.424661 0 0 1 -14.24451,-14.42466 14.244506,14.424661 0 0 1 14.24451,-14.42466 14.244506,14.424661 0 0 1 14.24451,14.42466 z" /><path
         id="path1-4"
         style="fill:none;stroke:#fd0000;stroke-width:0.926512;stroke-linecap:round"
         d="m 125.99287,192.43776 a 14.244506,14.424661 0 0 1 -14.2445,14.42466 14.244506,14.424661 0 0 1 -14.244509,-14.42466 14.244506,14.424661 0 0 1 14.244509,-14.42466 14.244506,14.424661 0 0 1 14.2445,14.42466 z" /><path
         id="path1-1-23"
         style="fill:none;stroke:#fd0000;stroke-width:0.926512;stroke-linecap:round"
         d="m 160.39427,192.53214 a 14.244506,14.424661 0 0 1 -14.2445,14.42466 14.244506,14.424661 0 0 1 -14.24451,-14.42466 14.244506,14.424661 0 0 1 14.24451,-14.42467 14.244506,14.424661 0 0 1 14.2445,14.42467 z" /><path
         id="path1-6"
         style="fill:none;stroke:#fd0000;stroke-width:0.926512;stroke-linecap:round"
         d="m 117.80379,226.19966 a 14.244506,14.424661 0 0 1 -14.2445,14.42466 14.244506,14.424661 0 0 1 -14.244508,-14.42466 14.244506,14.424661 0 0 1 14.244508,-14.42466 14.244506,14.424661 0 0 1 14.2445,14.42466 z" /><path
         id="path1-1-8"
         style="fill:none;stroke:#fd0000;stroke-width:0.926512;stroke-linecap:round"
         d="m 152.2052,226.29404 a 14.244506,14.424661 0 0 1 -14.24451,14.42466 14.244506,14.424661 0 0 1 -14.2445,-14.42466 14.244506,14.424661 0 0 1 14.2445,-14.42466 14.244506,14.424661 0 0 1 14.24451,14.42466 z" /></g></g></svg>
