<svg id="Layer_3" enable-background="new 0 0 64 64" height="512" viewBox="0 0 64 64" width="512" xmlns="http://www.w3.org/2000/svg"><g><path d="m2 11h60v42h-60z" fill="#3d98f7"/><path d="m2 19h4v-4h52v4h4v26h-60z" fill="#c7e2fc"/><path d="m18 39c19.257 0 35.071-10.537 36.831-24h-48.831v4h-4v17.4c4.842 1.666 10.269 2.6 16 2.6z" fill="#ebf7fe"/><g><path d="m5 48h2v2h-2z" fill="#fff"/></g><g><path d="m9 48h2v2h-2z" fill="#fff"/></g><g><path d="m13 48h2v2h-2z" fill="#fff"/></g><g><path d="m2 31h60v2h-60z" fill="#4d5d7a"/></g><g><path d="m32 42c-1.654 0-3-1.346-3-3v-14c0-.551-.448-1-1-1s-1 .449-1 1v12c0 1.654-1.346 3-3 3s-3-1.346-3-3v-10c0-.551-.448-1-1-1s-1 .449-1 1v7c0 1.654-1.346 3-3 3s-3-1.346-3-3v-13c0-.551-.448-1-1-1s-1 .449-1 1v18c0 1.654-1.346 3-3 3s-3-1.346-3-3v-14c0-.551-.448-1-1-1h-2v-2h2c1.654 0 3 1.346 3 3v14c0 .551.448 1 1 1s1-.449 1-1v-18c0-1.654 1.346-3 3-3s3 1.346 3 3v13c0 .551.448 1 1 1s1-.449 1-1v-7c0-1.654 1.346-3 3-3s3 1.346 3 3v10c0 .551.448 1 1 1s1-.449 1-1v-12c0-1.654 1.346-3 3-3s3 1.346 3 3v14c0 .551.448 1 1 1s1-.449 1-1v-18c0-1.654 1.346-3 3-3s3 1.346 3 3v13c0 .551.448 1 1 1s1-.449 1-1v-7c0-1.654 1.346-3 3-3s3 1.346 3 3v11c0 .551.448 1 1 1s1-.449 1-1v-17c0-1.654 1.346-3 3-3s3 1.346 3 3v13c0 .551.448 1 1 1s1-.449 1-1v-5c0-1.654 1.346-3 3-3h2v2h-2c-.552 0-1 .449-1 1v5c0 1.654-1.346 3-3 3s-3-1.346-3-3v-13c0-.551-.448-1-1-1s-1 .449-1 1v17c0 1.654-1.346 3-3 3s-3-1.346-3-3v-11c0-.551-.448-1-1-1s-1 .449-1 1v7c0 1.654-1.346 3-3 3s-3-1.346-3-3v-13c0-.551-.448-1-1-1s-1 .449-1 1v18c0 1.654-1.346 3-3 3z" fill="#70ce90"/></g></g></svg>