<svg id="Layer_3" height="512" viewBox="0 0 64 64" width="512" xmlns="http://www.w3.org/2000/svg" data-name="Layer 3"><path d="m34 14 2 1 2-2v31.014a10 10 0 1 1 -12 0v-29.014l2 1 2-2z" fill="#c1cfe8"/><path d="m24 52a10 10 0 0 0 9 9.95 9.99 9.99 0 0 0 5-17.936v-31.014l-2 2-2-1h-4l-2 2v28.014a9.972 9.972 0 0 0 -4 7.986z" fill="#d7e0ef"/><path d="m34 10v36.349a6 6 0 1 1 -4 0v-36.349h-3l5-8 5 8z" fill="#e73844"/><path d="m32 46.349v-36.349h3l-4-6.4-4 6.4h3v36.349a5.992 5.992 0 0 0 1 11.561 5.992 5.992 0 0 0 1-11.561z" fill="#ff4d55"/><path d="m42 13 2.034-1.526a7.371 7.371 0 0 1 4.423-1.474 7.371 7.371 0 0 1 5.756 2.767l.546.682a5.665 5.665 0 0 1 1.241 3.538 3.013 3.013 0 0 1 -3.013 3.013 3.013 3.013 0 0 1 -2.77-1.826 8.536 8.536 0 0 0 -7.846-5.174z" fill="#e73844"/><path d="m22 19-2.034-1.526a7.371 7.371 0 0 0 -4.423-1.474 7.37 7.37 0 0 0 -5.756 2.767l-.546.682a5.665 5.665 0 0 0 -1.241 3.538 3.013 3.013 0 0 0 3.013 3.013 3.014 3.014 0 0 0 2.77-1.826 8.536 8.536 0 0 1 7.846-5.174z" fill="#e73844"/><path d="m22.136 11.5-.032-.054a12.815 12.815 0 0 0 -11.104-6.446v-2a14.814 14.814 0 0 1 12.837 7.45z" fill="#f9cb5d"/><path d="m41.894 8.447-1.794-.894a11.791 11.791 0 0 1 10.608-6.553h2.292v2h-2.292a9.8 9.8 0 0 0 -8.814 5.447z" fill="#f9cb5d"/><path d="m24 4h2v2h-2z" fill="#f9cb5d"/><path d="m41 18h2v2h-2z" fill="#f9cb5d"/><path d="m12 12 2-4 4 3-3 2z" fill="#c1cfe8"/><path d="m48 6 2-1h5l-1 4z" fill="#c1cfe8"/><g fill="#f9cb5d"><path d="m45 51h6v2h-6z"/><path d="m43.964 43.5h7.071v2h-7.071z" transform="matrix(.707 -.707 .707 .707 -17.554 46.621)"/><path d="m46.5 55.964h2v7.071h-2z" transform="matrix(.707 -.707 .707 .707 -28.16 51.015)"/><path d="m13 51h6v2h-6z"/><path d="m15.5 40.964h2v7.071h-2z" transform="matrix(.707 -.707 .707 .707 -26.634 24.701)"/><path d="m12.964 58.5h7.071v2h-7.071z" transform="matrix(.707 -.707 .707 .707 -37.24 29.094)"/></g><path d="m21.258 19.028a7.319 7.319 0 0 0 -9.471 1.738l-.546.682a5.67 5.67 0 0 0 -1.241 3.539 2.98 2.98 0 0 0 .143.87 2.98 2.98 0 0 0 .87.143 3.014 3.014 0 0 0 2.77-1.826 8.518 8.518 0 0 1 7.475-5.146z" fill="#ff4d55"/><path d="m53.857 19.857a2.98 2.98 0 0 0 .143-.87 5.67 5.67 0 0 0 -1.241-3.539l-.546-.682a7.319 7.319 0 0 0 -9.471-1.738 8.52 8.52 0 0 1 7.475 5.146 3.013 3.013 0 0 0 2.77 1.826 2.98 2.98 0 0 0 .87-.143z" fill="#ff4d55"/><path d="m-288-96h544v256h-544z" fill="none"/></svg>