<svg id="Layer_3" height="512" viewBox="0 0 64 64" width="512" xmlns="http://www.w3.org/2000/svg" data-name="Layer 3"><path d="m16.444 47.556a22 22 0 1 1 31.112 0l5.657 5.657a30 30 0 1 0 -42.426 0z" fill="#b4de60"/><path d="m47.556 16.444a21.927 21.927 0 0 1 6.444 15.556h8a29.906 29.906 0 0 0 -8.787-21.213z" fill="#d24034"/><path d="m47.556 16.444 5.657-5.657a29.906 29.906 0 0 0 -21.213-8.787v8a21.927 21.927 0 0 1 15.556 6.444z" fill="#e4a350"/><path d="m10.787 10.787 5.657 5.657a21.927 21.927 0 0 1 15.556-6.444v-8a29.906 29.906 0 0 0 -21.213 8.787z" fill="#f5bb5c"/><rect fill="#94c249" height="18" rx="3" width="24" x="20" y="44"/><path d="m44 59v-12a3 3 0 0 0 -3-3h-18a2.991 2.991 0 0 0 -2.866 2.16c1.01 8.921 8.166 15.84 16.866 15.84h4a3 3 0 0 0 3-3z" fill="#b4de60"/><path d="m27 59a4 4 0 0 1 -4-4h2a2 2 0 1 0 2-2h-3a1 1 0 0 1 -1-1v-4a1 1 0 0 1 1-1h6v2h-5v2h2a4 4 0 0 1 0 8z" fill="#fff"/><path d="m37 59a4 4 0 0 1 -4-4v-4a4 4 0 0 1 8 0h-2a2 2 0 0 0 -4 0v4a2 2 0 0 0 4 0v-1h-2v-2h3a1 1 0 0 1 1 1v2a4 4 0 0 1 -4 4z" fill="#fff"/><circle cx="32" cy="32" fill="#b4b2a6" r="4"/><path d="m32 28a4 4 0 0 1 4 4l7-11z" fill="#d8d5cb"/><path d="m16.444 16.444-5.657-5.657a29.906 29.906 0 0 0 -8.787 21.213h8a21.927 21.927 0 0 1 6.444-15.556z" fill="#94c249"/><path d="m47.556 47.556 5.657 5.657a29.906 29.906 0 0 0 8.787-21.213h-8a21.927 21.927 0 0 1 -6.444 15.556z" fill="#aa2b24"/></svg>