<svg id="Layer_1" enable-background="new 0 0 512 512" height="512" viewBox="0 0 512 512" width="512" xmlns="http://www.w3.org/2000/svg"><g><path d="m396.084 143.921-23.355 26.561c-.869.989-1.227 2.326-.968 3.617l6.961 34.677c.418 2.083-.778 4.152-2.791 4.83l-33.525 11.282c-1.251.421-2.232 1.403-2.653 2.653l-11.282 33.524c-.678 2.014-2.747 3.209-4.83 2.791l-34.676-6.961c-1.291-.259-2.628.099-3.617.968l-26.562 23.355c-1.593 1.401-3.979 1.401-5.573 0l-26.561-23.355c-.989-.869-2.326-1.227-3.617-.968l-34.677 6.961c-2.083.418-4.152-.778-4.83-2.791l-11.282-33.525c-.421-1.251-1.403-2.232-2.653-2.653l-33.524-11.282c-2.014-.678-3.209-2.747-2.791-4.83l6.961-34.676c.259-1.291-.099-2.628-.968-3.617l-23.355-26.562c-1.401-1.593-1.401-3.979 0-5.573l23.355-26.561c.869-.989 1.227-2.326.968-3.617l-6.961-34.677c-.418-2.083.778-4.152 2.791-4.83l33.525-11.282c1.251-.421 2.232-1.403 2.653-2.653l11.282-33.524c.678-2.014 2.747-3.209 4.83-2.791l34.676 6.961c1.291.259 2.628-.099 3.617-.968l26.562-23.355c1.593-1.401 3.979-1.401 5.573 0l26.561 23.355c.989.869 2.326 1.227 3.617.968l34.677-6.961c2.083-.418 4.152.778 4.83 2.791l11.282 33.525c.421 1.251 1.403 2.232 2.653 2.653l33.524 11.282c2.014.678 3.209 2.747 2.791 4.83l-6.961 34.676c-.259 1.291.099 2.628.968 3.617l23.355 26.562c1.401 1.594 1.401 3.98 0 5.573z" fill="#fee45a"/><g><path d="m396.084 143.921c1.401-1.593 1.401-3.979 0-5.572l-23.355-26.562c-.869-.989-1.227-2.326-.968-3.617l6.961-34.676c.418-2.083-.778-4.152-2.791-4.83l-33.525-11.282c-1.251-.421-2.233-1.403-2.653-2.653l-11.282-33.525c-.678-2.014-2.747-3.209-4.83-2.791l-25.306 5.079 10.512 31.236c.421 1.251 1.403 2.232 2.653 2.653l33.525 11.282c2.014.678 3.209 2.747 2.791 4.83l-6.961 34.676c-.259 1.291.099 2.628.968 3.617l23.355 26.562c1.401 1.593 1.401 3.979 0 5.572l-23.355 26.561c-.869.989-1.227 2.326-.968 3.617l6.961 34.677c.418 2.083-.778 4.152-2.791 4.83l-33.525 11.282c-1.251.421-2.233 1.403-2.653 2.653l-10.512 31.236 25.306 5.08c2.083.418 4.152-.777 4.83-2.791l11.282-33.524c.421-1.251 1.403-2.233 2.653-2.653l33.525-11.282c2.014-.678 3.209-2.747 2.791-4.83l-6.961-34.677c-.259-1.29.099-2.628.968-3.617z" fill="#fec165"/></g><path d="m256 160.229c-8.76 0-16.082-6.664-16.905-15.384l-7.122-75.471c-.459-4.866 3.368-9.072 8.256-9.072h31.541c4.888 0 8.716 4.206 8.256 9.072l-7.122 75.471c-.822 8.72-8.144 15.384-16.904 15.384z" fill="#fd8087"/><circle cx="256" cy="202.395" fill="#fd8087" r="19.573"/><g fill="#62dbfb"><path d="m96.842 266.97c-2.802-3.051-7.546-3.253-10.597-.45-3.051 2.802-3.252 7.547-.45 10.597l29.829 32.475c1.479 1.61 3.499 2.427 5.525 2.427 1.812 0 3.631-.653 5.071-1.977 3.051-2.802 3.252-7.547.45-10.597z"/><path d="m109.161 319.516-35.009-19.052c-3.638-1.978-8.192-.636-10.173 3.003-1.979 3.639-.636 8.192 3.003 10.173l35.009 19.052c1.139.619 2.367.913 3.578.913 2.659 0 5.234-1.416 6.595-3.916 1.98-3.639.636-8.193-3.003-10.173z"/><path d="m135.467 252.024c-1.655-3.797-6.072-5.532-9.872-3.88-3.797 1.655-5.534 6.075-3.88 9.872l15.806 36.271c1.23 2.822 3.986 4.506 6.88 4.506 1 0 2.017-.201 2.992-.626 3.797-1.655 5.534-6.075 3.88-9.872z"/><path d="m425.755 266.52c-3.051-2.802-7.795-2.602-10.597.45l-29.829 32.475c-2.802 3.05-2.601 7.795.45 10.597 1.44 1.323 3.258 1.977 5.071 1.977 2.026 0 4.047-.816 5.525-2.427l29.829-32.475c2.803-3.051 2.602-7.796-.449-10.597z"/><path d="m448.021 303.467c-1.979-3.639-6.534-4.981-10.173-3.003l-35.009 19.052c-3.639 1.98-4.982 6.534-3.003 10.173 1.36 2.5 3.936 3.916 6.595 3.916 1.211 0 2.439-.294 3.578-.913l35.009-19.052c3.638-1.981 4.982-6.535 3.003-10.173z"/><path d="m386.405 248.145c-3.8-1.653-8.217.084-9.872 3.88l-15.806 36.271c-1.654 3.797.083 8.217 3.88 9.872.976.425 1.992.626 2.992.626 2.894 0 5.649-1.685 6.88-4.506l15.806-36.271c1.654-3.797-.083-8.217-3.88-9.872z"/></g><g><path d="m256 339.228c0-11.73-6.913-22.414-17.708-27.121-14.064-6.132-36.213-10.374-65.386.858-47.582 18.321-54.141 61.746-55.016 75.387-.172 2.683-1.287 5.206-3.162 7.141-10.958 11.309-46.004 53.248-10.883 96.188 41.758 51.054 85.814-9.865 131.224-12.561 11.56 0 20.931-9.327 20.931-20.833z" fill="#fe99a0"/><path d="m238.292 312.107c-10.745-4.685-26.214-8.258-45.924-4.678 5.73 1.133 10.749 2.817 15.018 4.678 10.795 4.707 17.708 15.39 17.708 27.121v119.059c0 11.506-14.846 10.503-32.808 20.012-17.324 9.172-40.361 23.547-65.613 31.068 34.877 13.261 71.181-28.038 108.396-30.248 11.56 0 20.931-9.327 20.931-20.833v-119.058c0-11.731-6.913-22.414-17.708-27.121z" fill="#fe76a8"/><path d="m256 339.228c0-11.73 6.913-22.414 17.708-27.121 14.064-6.132 36.213-10.374 65.386.858 47.582 18.321 54.141 61.746 55.016 75.387.172 2.683 1.287 5.206 3.162 7.141 10.958 11.309 46.004 53.248 10.883 96.188-41.758 51.054-85.814-9.865-131.224-12.561-11.56 0-20.931-9.327-20.931-20.833z" fill="#fe99a0"/><path d="m397.272 395.493c-1.875-1.935-2.99-4.459-3.162-7.141-.875-13.641-7.433-57.066-55.016-75.387-20.317-7.823-37.222-8.136-50.367-5.537 6.089 1.106 12.577 2.886 19.462 5.537 47.582 18.321 54.141 61.746 55.016 75.387.172 2.683 1.287 5.206 3.162 7.141 10.958 11.309 46.004 53.248 10.883 96.188-7.536 9.214-15.148 14.766-22.828 17.686 18.269 5.442 36.204 3.745 53.733-17.686 35.121-42.94.074-84.879-10.883-96.188z" fill="#fe76a8"/><g fill="#e759aa"><g><path d="m256 422v15.03c-11.38-.87-26.18 1.83-35.16 6.39.79 2.96 1.29 6 1.47 9.07.25 4.13-2.91 7.68-7.04 7.93-.15.01-.3.01-.45.01-3.94 0-7.25-3.08-7.48-7.06-.47-7.99-4.32-15.98-10.3-21.37-3.08-2.77-3.32-7.52-.55-10.59 2.77-3.08 7.51-3.33 10.59-.55 2.91 2.62 5.46 5.61 7.6 8.86 12.32-6.06 29.14-8.41 41.32-7.72z"/><path d="m177.27 501.39c-4.78 2.3-9.53 4.43-14.26 6.17-.98-9.22-5.11-21.84-10.04-26.79-5.77-5.8-13.77-9.56-21.94-10.31-4.13-.38-7.16-4.03-6.79-8.15.38-4.12 4.03-7.17 8.16-6.78 11.79 1.08 22.87 6.28 31.21 14.66 7.49 7.52 11.88 21.1 13.66 31.2z"/><path d="m186.34 387.14c-8.19 11.3-11.76 25.77-9.79 39.7.58 4.11-2.27 7.9-6.37 8.48-.36.05-.71.08-1.06.08-3.68 0-6.89-2.71-7.42-6.45-.72-5.09-.84-10.23-.43-15.32-14.64-2.82-31.87-11.67-44.62-20.82.72-1.37 1.14-2.89 1.24-4.46.19-2.9.63-7.16 1.67-12.23 11.45 9.63 30.15 20.05 44.49 22.78 2.22-7.35 5.63-14.34 10.15-20.57 2.43-3.35 7.12-4.1 10.47-1.66 3.36 2.43 4.1 7.12 1.67 10.47z"/><path d="m256 369.66v15.51c-4.07.86-8.58 1.29-13.12 1.29-7.85 0-15.8-1.27-21.78-3.76-12.95-5.39-21.41-14.35-24.78-26.12-.33.01-.66.02-.99.02-4.91 0-9.81-.77-14.49-2.34-3.93-1.31-6.05-5.56-4.73-9.49s5.57-6.04 9.49-4.73c9.47 3.17 20.72 1.35 28.67-4.65 3.31-2.5 8.01-1.84 10.51 1.46 2.49 3.31 1.83 8.01-1.47 10.51-3.69 2.78-7.79 4.95-12.1 6.49 2.39 6.63 7.64 11.67 15.65 15 7.42 3.09 21.24 3.46 29.14.81z"/></g><g><path d="m255.941 422v15.03c11.38-.87 26.18 1.83 35.16 6.39-.79 2.96-1.29 6-1.47 9.07-.25 4.13 2.91 7.68 7.04 7.93.15.01.3.01.45.01 3.94 0 7.25-3.08 7.48-7.06.47-7.99 4.32-15.98 10.3-21.37 3.08-2.77 3.32-7.52.55-10.59-2.77-3.08-7.51-3.33-10.59-.55-2.91 2.62-5.46 5.61-7.6 8.86-12.32-6.06-29.14-8.41-41.32-7.72z"/><path d="m334.671 501.39c4.78 2.3 9.53 4.43 14.26 6.17.98-9.22 5.11-21.84 10.04-26.79 5.77-5.8 13.77-9.56 21.94-10.31 4.13-.38 7.16-4.03 6.79-8.15-.38-4.12-4.03-7.17-8.16-6.78-11.79 1.08-22.87 6.28-31.21 14.66-7.49 7.52-11.88 21.1-13.66 31.2z"/><path d="m325.601 387.14c8.19 11.3 11.76 25.77 9.79 39.7-.58 4.11 2.27 7.9 6.37 8.48.36.05.71.08 1.06.08 3.68 0 6.89-2.71 7.42-6.45.72-5.09.84-10.23.43-15.32 14.64-2.82 31.87-11.67 44.62-20.82-.72-1.37-1.14-2.89-1.24-4.46-.19-2.9-.63-7.16-1.67-12.23-11.45 9.63-30.15 20.05-44.49 22.78-2.22-7.35-5.63-14.34-10.15-20.57-2.43-3.35-7.12-4.1-10.47-1.66-3.36 2.43-4.1 7.12-1.67 10.47z"/><path d="m255.941 369.66v15.51c4.07.86 8.58 1.29 13.12 1.29 7.85 0 15.8-1.27 21.78-3.76 12.95-5.39 21.41-14.35 24.78-26.12.33.01.66.02.99.02 4.91 0 9.81-.77 14.49-2.34 3.93-1.31 6.05-5.56 4.73-9.49s-5.57-6.04-9.49-4.73c-9.47 3.17-20.72 1.35-28.67-4.65-3.31-2.5-8.01-1.84-10.51 1.46-2.49 3.31-1.83 8.01 1.47 10.51 3.69 2.78 7.79 4.95 12.1 6.49-2.39 6.63-7.64 11.67-15.65 15-7.42 3.09-21.24 3.46-29.14.81z"/></g><path d="m255.94 349.064c-4.142 0-7.5 3.358-7.5 7.5v95.59c0 4.142 3.358 7.5 7.5 7.5s7.5-3.358 7.5-7.5v-95.59c0-4.142-3.357-7.5-7.5-7.5z"/></g></g></g></svg>