<svg id="Layer_1" enable-background="new 0 0 511.99 511.99" height="512" viewBox="0 0 511.99 511.99" width="512" xmlns="http://www.w3.org/2000/svg"><g><path d="m174.993 381.605h162.004v76.925h-162.004z" fill="#d6e9f8"/><path d="m255.995 381.605h81.002v76.925h-81.002z" fill="#a9bbf6"/><g><path d="m138.495 443.531h235v30h-235z" fill="#e9f3fb"/></g><path d="m15.001 53.46h361.66v268.141h-361.66z" fill="#e9f3fb"/><path d="m255.995 53.46h120.666v268.141h-120.666z" fill="#d6e9f8"/><g><path d="m15 187.383h361.662v30h-361.662z" fill="#a9bbf6"/></g><path d="m255.995 187.383h120.667v30h-120.667z" fill="#a393f4"/><g><path d="m286.246 276.597c-24.889 0-45.138-20.249-45.138-45.138v-57.578c0-8.348-6.791-15.139-15.139-15.139s-15.139 6.791-15.139 15.139v57.578c0 24.889-20.249 45.138-45.139 45.138s-45.139-20.249-45.139-45.138v-87.857c0-8.347-6.791-15.138-15.138-15.138-8.348 0-15.139 6.791-15.139 15.138v87.857c0 24.889-20.249 45.138-45.139 45.138h-30.136v-30h30.139c8.348 0 15.139-6.791 15.139-15.138v-87.857c0-24.889 20.249-45.138 45.139-45.138 24.889 0 45.138 20.249 45.138 45.138v87.857c0 8.347 6.791 15.138 15.139 15.138s15.139-6.791 15.139-15.138v-57.578c0-24.89 20.249-45.139 45.139-45.139s45.139 20.249 45.139 45.139v57.578c0 8.347 6.791 15.138 15.138 15.138 8.348 0 15.139-6.791 15.139-15.138v-67.914c0-24.89 20.249-45.139 45.139-45.139s45.139 20.249 45.139 45.139h-30c0-8.348-6.791-15.139-15.139-15.139s-15.139 6.791-15.139 15.139v67.914c-.003 24.889-20.252 45.138-45.142 45.138z" fill="#ff6378"/></g><path d="m346.523 118.406c-24.89 0-45.139 20.249-45.139 45.139v67.914c0 8.347-6.791 15.138-15.139 15.138-8.347 0-15.138-6.791-15.138-15.138v-57.578c0-13.372-5.845-25.404-15.113-33.676v124.726c8.01 7.247 18.624 11.666 30.251 11.666 24.89 0 45.139-20.249 45.139-45.138v-67.914c0-8.348 6.791-15.139 15.139-15.139s15.139 6.791 15.139 15.139h30c0-24.89-20.249-45.139-45.139-45.139z" fill="#ec3d93"/><path d="m361.662 53.46h135.327v268.141h-135.327z" fill="#7771f0"/><path d="m361.662 53.46h135.327v268.141h-135.327z" fill="#5d42b7"/><path d="m0 321.602h511.99v75.003h-511.99z" fill="#e9f3fb"/><path d="m255.995 321.602h255.995v75.003h-255.995z" fill="#d6e9f8"/><g><path d="m410.825 112.525h30v30.001h-30z" fill="#fff16b"/></g><g><path d="m410.825 172.529h30v30.002h-30z" fill="#fff16b"/></g><g><path d="m410.825 232.533h30v30.002h-30z" fill="#fff16b"/></g><g><path d="m511.99 336.601h-511.99v-298.142h511.99zm-481.99-30h451.99v-238.142h-451.99z" fill="#5d2d91"/></g><g><path d="m410.825 112.525h30v30.001h-30z" fill="#ffd845"/></g><g><path d="m410.825 172.529h30v30.002h-30z" fill="#ffd845"/></g><g><path d="m410.825 232.533h30v30.002h-30z" fill="#ffd845"/></g><path d="m255.995 443.531h117.5v30h-117.5z" fill="#d6e9f8"/><path d="m511.99 38.459h-255.995v30h225.995v238.142h-225.995v30h255.995z" fill="#3e2079"/></g></svg>