<svg id="Layer_3" enable-background="new 0 0 64 64" height="512" viewBox="0 0 64 64" width="512" xmlns="http://www.w3.org/2000/svg"><g><path d="m2 58h60v4h-60z" fill="#4d5d7a"/><path d="m30 58v-38h-6v38" fill="#f5b953"/><path d="m50 58v-48h-6v48" fill="#e39854"/><path d="m60 58v-18h-6v18" fill="#f097d0"/><path d="m40 58v-8h-6v8" fill="#e47c6e"/><path d="m20 58v-18h-6v18" fill="#78b75b"/><path d="m10 58v-28h-6v28" fill="#8bd2f5"/><g><path d="m50 8h-6c-.552 0-1-.448-1-1v-5h2v4h4v-4h2v5c0 .552-.448 1-1 1z" fill="#c16b3f"/></g><g><path d="m30 18h-6c-.552 0-1-.448-1-1v-3h2v2h4v-2h2v3c0 .552-.448 1-1 1z" fill="#f9d18b"/></g><g><path d="m20 38h-6c-.552 0-1-.448-1-1v-3h2v2h4v-2h2v3c0 .552-.448 1-1 1z" fill="#669e4f"/></g><g><path d="m10 28h-6c-.552 0-1-.448-1-1v-3h2v2h4v-2h2v3c0 .552-.448 1-1 1z" fill="#66acd7"/></g><g><path d="m3 20h2v2h-2z" fill="#66acd7"/></g><g><path d="m9 20h2v2h-2z" fill="#66acd7"/></g><g><path d="m13 30h2v2h-2z" fill="#669e4f"/></g><g><path d="m13 26h2v2h-2z" fill="#669e4f"/></g><g><path d="m19 30h2v2h-2z" fill="#669e4f"/></g><g><path d="m19 26h2v2h-2z" fill="#669e4f"/></g><g><path d="m23 10h2v2h-2z" fill="#f9d18b"/></g><g><path d="m23 6h2v2h-2z" fill="#f9d18b"/></g><g><path d="m29 10h2v2h-2z" fill="#f9d18b"/></g><g><path d="m29 6h2v2h-2z" fill="#f9d18b"/></g><g><path d="m60 38h-6c-.552 0-1-.448-1-1v-3h2v2h4v-2h2v3c0 .552-.448 1-1 1z" fill="#d6759e"/></g><g><path d="m53 30h2v2h-2z" fill="#d6759e"/></g><g><path d="m53 26h2v2h-2z" fill="#d6759e"/></g><g><path d="m59 30h2v2h-2z" fill="#d6759e"/></g><g><path d="m59 26h2v2h-2z" fill="#d6759e"/></g><g><path d="m40 48h-6c-.552 0-1-.448-1-1v-3h2v2h4v-2h2v3c0 .552-.448 1-1 1z" fill="#c66b60"/></g><g><path d="m33 40h2v2h-2z" fill="#c66b60"/></g><g><path d="m33 36h2v2h-2z" fill="#c66b60"/></g><g><path d="m39 40h2v2h-2z" fill="#c66b60"/></g><g><path d="m39 36h2v2h-2z" fill="#c66b60"/></g><g><path d="m33 32h2v2h-2z" fill="#c66b60"/></g><g><path d="m39 32h2v2h-2z" fill="#c66b60"/></g></g></svg>