<?xml version="1.0" encoding="iso-8859-1"?>
<!-- Generator: Adobe Illustrator 19.0.0, SVG Export Plug-In . SVG Version: 6.00 Build 0)  -->
<svg version="1.1" id="Capa_1" xmlns="http://www.w3.org/2000/svg" xmlns:xlink="http://www.w3.org/1999/xlink" x="0px" y="0px"
	 viewBox="0 0 512 512" style="enable-background:new 0 0 512 512;" xml:space="preserve">
<polygon style="fill:#93D632;" points="256.164,511.836 512,511.836 512,147.759 256.162,147.759 256.16,511.836 "/>
<path style="fill:#A7E340;" d="M255.84,511.836h255.836V147.759H255.838H0v327.095c0,20.424,16.557,36.982,36.982,36.982h218.854
	H255.84z"/>
<polygon style="fill:#93D632;" points="255.84,511.836 511.676,511.836 511.676,147.759 255.838,147.759 310.406,147.759 
	310.407,511.836 "/>
<path style="fill:#F0F0F0;" d="M511.675,265.162H411.239V147.759h-29.981v117.403H239.555V147.759h-29.981v117.403H56.235v29.981
	h153.339v98.16L63.078,511.836h47.664l119.127-96.389h151.389v96.389h29.981V295.143h100.437L511.675,265.162L511.675,265.162z
	 M381.258,385.466H239.555v-90.323h141.703V385.466z"/>
<path style="fill:#78B22A;" d="M37.306,101.992c-20.424,0-36.982,16.557-36.982,36.982v337.262
	c0-20.424,16.557-36.982,36.982-36.982l0,0h36.982V101.992H37.306z"/>
<polygon style="fill:#E4E4E4;" points="411.239,265.162 411.239,147.759 381.258,147.759 381.258,265.162 310.407,265.162 
	310.407,295.143 381.258,295.143 381.258,385.466 310.407,385.466 310.407,415.447 381.258,415.447 381.258,511.836 
	411.239,511.836 411.239,295.143 511.675,295.143 511.675,265.162 "/>
<path style="fill:#FFC247;" d="M372.989,26.087L372.989,26.087c-34.563-34.563-90.602-34.563-125.165,0l0,0
	c-30.131,30.131-34.514,77.456-10.428,112.607l73.011,106.557l73.011-106.557C407.503,103.542,403.12,56.217,372.989,26.087z"/>
<path style="fill:#FFA426;" d="M372.989,26.087L372.989,26.087C355.707,8.805,333.057,0.164,310.407,0.164
	c0,25.864,0,245.087,0,245.087l73.011-106.557C407.503,103.542,403.12,56.217,372.989,26.087z"/>
<circle style="fill:#FA5D0F;" cx="310.41" cy="88.67" r="36.31"/>
<path style="fill:#F24500;" d="M346.713,88.67c0,20.052-16.255,36.307-36.307,36.307c0-36.792,0-42.653,0-72.613
	C330.458,52.364,346.713,68.619,346.713,88.67z"/>
<g>
</g>
<g>
</g>
<g>
</g>
<g>
</g>
<g>
</g>
<g>
</g>
<g>
</g>
<g>
</g>
<g>
</g>
<g>
</g>
<g>
</g>
<g>
</g>
<g>
</g>
<g>
</g>
<g>
</g>
</svg>
