<svg id="Layer_3" height="512" viewBox="0 0 64 64" width="512" xmlns="http://www.w3.org/2000/svg" data-name="Layer 3"><path d="m53 62a3.983 3.983 0 0 0 -2.047-3.471 3.954 3.954 0 0 0 -5.362-3.261 3.977 3.977 0 0 0 -7.182 0 3.954 3.954 0 0 0 -5.362 3.261 3.983 3.983 0 0 0 -2.047 3.471z" fill="#6bc13b"/><path d="m25 62a3.983 3.983 0 0 0 -2.047-3.471 3.954 3.954 0 0 0 -5.362-3.261 3.977 3.977 0 0 0 -7.182 0 3.954 3.954 0 0 0 -5.362 3.261 3.983 3.983 0 0 0 -2.047 3.471z" fill="#6bc13b"/><path d="m32 36a5.992 5.992 0 0 0 3.55-2.013 5.994 5.994 0 0 0 7.54-9.287 5.992 5.992 0 0 0 -1.19-11.542 5.98 5.98 0 0 0 -5.9-7.075 5.975 5.975 0 0 0 -2.215.428 5.993 5.993 0 0 0 -11.57 0 5.991 5.991 0 0 0 -8.215 5.572 6.036 6.036 0 0 0 .1 1.075 5.992 5.992 0 0 0 -1.19 11.542 5.994 5.994 0 0 0 7.54 9.285 6 6 0 0 0 3.55 2.015z" fill="#4d8c28"/><path d="m36 19-4 7v14.82a47.373 47.373 0 0 0 2.469 15.092 4.016 4.016 0 0 0 -1.422 2.617 3.983 3.983 0 0 0 -2.047 3.471h-6a3.983 3.983 0 0 0 -2.047-3.471 4.016 4.016 0 0 0 -1.422-2.617 47.373 47.373 0 0 0 2.469-15.092v-14.82l-4-7 4-2 4 6 4-6z" fill="#c18e59"/><path d="m60 39a3.931 3.931 0 0 0 -.824-2.409 1.764 1.764 0 0 1 -.324-1.546 4.25 4.25 0 0 0 -.921-3.869 1.815 1.815 0 0 0 -.478-.434 4.406 4.406 0 0 0 -3.381-.634 1.978 1.978 0 0 1 -2.013-.665 3.964 3.964 0 0 0 -6.118 0 1.978 1.978 0 0 1 -2.013.665 4.406 4.406 0 0 0 -3.381.634 1.815 1.815 0 0 0 -.478.434 4.25 4.25 0 0 0 -.921 3.869 1.764 1.764 0 0 1 -.324 1.546 3.932 3.932 0 0 0 0 4.818 1.767 1.767 0 0 1 .323 1.546 4.248 4.248 0 0 0 .919 3.867 1.835 1.835 0 0 0 .478.435 4.407 4.407 0 0 0 3.383.635 1.978 1.978 0 0 1 2.013.665 3.964 3.964 0 0 0 6.118 0 1.978 1.978 0 0 1 2.013-.665 4.407 4.407 0 0 0 3.383-.635 1.835 1.835 0 0 0 .478-.435 4.248 4.248 0 0 0 .919-3.867 1.767 1.767 0 0 1 .323-1.546 3.926 3.926 0 0 0 .826-2.409z" fill="#c0dafc"/><path d="m47 43h-2a3 3 0 0 1 -3-3v-4a3 3 0 0 1 3-3h2a3 3 0 0 1 3 3v4a3 3 0 0 1 -3 3zm-2-8a1 1 0 0 0 -1 1v4a1 1 0 0 0 1 1h2a1 1 0 0 0 1-1v-4a1 1 0 0 0 -1-1z" fill="#fff"/><path d="m56 45h-4a1 1 0 0 1 -1-1v-3a1 1 0 0 1 1-1h2v-1h-3v-2h4a1 1 0 0 1 1 1v3a1 1 0 0 1 -1 1h-2v1h3z" fill="#fff"/><circle cx="57" cy="22" fill="#aed5ff" r="4"/><circle cx="53" cy="12" fill="#c0dafc" r="3"/><path d="m3 38 4-4 4 4h-2v6h-4v-6z" fill="#f9d266"/><path d="m12 45 4-4 4 4h-2v4h-4v-4z" fill="#f0ae42"/></svg>