<?xml version="1.0" encoding="UTF-8" standalone="no"?>
<svg
   viewBox="0 0 61.854173 61.072801"
   version="1.1"
   id="svg50"
   sodipodi:docname="lets-steam.svg"
   width="61.854172"
   height="61.0728"
   inkscape:version="1.4.2 (ebf0e940d0, 2025-05-08)"
   xmlns:inkscape="http://www.inkscape.org/namespaces/inkscape"
   xmlns:sodipodi="http://sodipodi.sourceforge.net/DTD/sodipodi-0.dtd"
   xmlns="http://www.w3.org/2000/svg"
   xmlns:svg="http://www.w3.org/2000/svg">
  <sodipodi:namedview
     id="namedview50"
     pagecolor="#ffffff"
     bordercolor="#000000"
     borderopacity="0.25"
     inkscape:showpageshadow="2"
     inkscape:pageopacity="0.0"
     inkscape:pagecheckerboard="0"
     inkscape:deskcolor="#d1d1d1"
     inkscape:zoom="2.2734835"
     inkscape:cx="30.569829"
     inkscape:cy="35.848072"
     inkscape:window-width="1316"
     inkscape:window-height="699"
     inkscape:window-x="0"
     inkscape:window-y="0"
     inkscape:window-maximized="1"
     inkscape:current-layer="Calque_1-2" />
  <defs
     id="defs1">
    <style
       id="style1">.cls-1{font-size:7.02px;fill:#575756;font-family:Calibri;}.cls-2{letter-spacing:-0.01em;}.cls-3{letter-spacing:0.03em;}.cls-4{letter-spacing:-0.06em;}.cls-5{font-size:10.85px;font-family:ArialRoundedMTBold, Arial Rounded MT Bold;letter-spacing:0.08em;}.cls-10,.cls-5{fill:#41bdd6;}.cls-6{fill:none;}.cls-7{fill:#fdc400;}.cls-8{fill:#e9407f;}.cls-9{fill:#62549f;}.cls-11{fill:#61b22f;}</style>
  </defs>
  <title
     id="title1">logo STEAM carré_1</title>
  <g
     id="Calque_2"
     data-name="Calque 2"
     transform="translate(-14.452061,-9.34742)">
    <g
       id="Calque_1-2"
       data-name="Calque 1">
      <path
         class="cls-6"
         d="m 29.29,31.42 a 20.31,20.31 0 0 1 8,-2.18 20.44,20.44 0 0 1 4.87,-6.69"
         id="path5" />
      <path
         class="cls-6"
         d="m 49.28,22.72 a 20.56,20.56 0 0 1 4.55,6.92 20.46,20.46 0 0 1 7.86,2.57"
         id="path6" />
      <path
         class="cls-6"
         d="m 52.67,57.84 a 20.55,20.55 0 0 1 -7.74,-2.92 20.51,20.51 0 0 1 -7.88,2.54"
         id="path7" />
      <path
         class="cls-6"
         d="M 22.71,53.59 A 16.31,16.31 0 0 0 38.88,66"
         id="path8" />
      <path
         class="cls-6"
         d="m 26.16,23.32 a 16.32,16.32 0 0 0 -6.75,19.2"
         id="path9" />
      <path
         class="cls-6"
         d="m 31.38,53.13 a 20.56,20.56 0 0 1 0.39,-8.27 20.58,20.58 0 0 1 -4.85,-6.7"
         id="path10" />
      <path
         class="cls-6"
         d="m 55.25,37.86 a 20.61,20.61 0 0 1 1.93,3.38 16.17,16.17 0 0 0 3.34,-5 A 16.29,16.29 0 0 0 55,34 a 21,21 0 0 1 0.25,3.86 z"
         id="path11" />
      <path
         class="cls-6"
         d="m 35.88,33.51 a 16.11,16.11 0 0 0 -5.62,2 16.28,16.28 0 0 0 3.1,5.11 19.56,19.56 0 0 1 2.09,-3.28 20,20 0 0 1 0.43,-3.83 z"
         id="path12" />
      <path
         class="cls-6"
         d="m 39,49.11 a 21.08,21.08 0 0 1 -3.6,-1.61 16.28,16.28 0 0 0 0.21,6 16.47,16.47 0 0 0 5.81,-1.37 A 20.42,20.42 0 0 1 39,49.11 Z"
         id="path13" />
      <path
         class="cls-6"
         d="m 48.56,52.28 a 16.4,16.4 0 0 0 5.75,1.65 16,16 0 0 0 0.49,-6 20,20 0 0 1 -3.62,1.42 19.92,19.92 0 0 1 -2.62,2.93 z"
         id="path14" />
      <path
         class="cls-6"
         d="m 49.33,29.64 a 16.33,16.33 0 0 0 -3.67,-4.72 16.22,16.22 0 0 0 -3.9,4.53 20.78,20.78 0 0 1 3.76,1 20.3,20.3 0 0 1 3.81,-0.81 z"
         id="path15" />
      <path
         class="cls-6"
         d="m 63.73,39.05 a 20.42,20.42 0 0 1 -5.17,6.46 20.44,20.44 0 0 1 0,8.28"
         id="path16" />
      <path
         class="cls-6"
         d="M 71,43.77 A 16.31,16.31 0 0 0 65.19,24.27"
         id="path17" />
      <path
         class="cls-6"
         d="M 56,17.25 A 16.33,16.33 0 0 0 35.66,16.75"
         id="path18" />
      <path
         class="cls-6"
         d="m 51.06,39.11 a 16.63,16.63 0 0 0 -2.9,-2.71 17.3,17.3 0 0 0 -2.74,-1.6 16.21,16.21 0 0 0 -3.42,1.92 16,16 0 0 0 -2.37,2.11 16.2,16.2 0 0 0 0.75,3.89 17.3,17.3 0 0 0 1.27,2.91 16.34,16.34 0 0 0 7.1,0.17 16.14,16.14 0 0 0 1.67,-3.59 16.44,16.44 0 0 0 0.64,-3.1 z"
         id="path19" />
      <path
         class="cls-6"
         d="M 50.44,66.23 A 16.35,16.35 0 0 0 67.19,54.67"
         id="path20" />
      <path
         class="cls-7"
         d="m 61.69,32.21 a 20.57,20.57 0 0 1 3.64,2.64"
         id="path21" />
      <path
         class="cls-7"
         d="M 51.18,49.4 A 20,20 0 0 0 54.8,48 15.87,15.87 0 0 0 54,44.26 19.79,19.79 0 0 1 51.18,49.4 Z"
         id="path22" />
      <path
         class="cls-7"
         d="m 25.53,33.88 a 20.44,20.44 0 0 1 3.76,-2.46"
         id="path23" />
      <path
         class="cls-8"
         d="M 32.56,57.46 A 20.15,20.15 0 0 1 31.38,53.13"
         id="path24" />
      <path
         class="cls-8"
         d="m 42.14,22.55 a 20.39,20.39 0 0 1 3.64,-2.64"
         id="path25" />
      <path
         class="cls-8"
         d="M 55.25,37.86 A 21,21 0 0 0 55,34 a 16,16 0 0 0 -3.79,-0.36 20.23,20.23 0 0 1 4.04,4.22 z"
         id="path26" />
      <path
         class="cls-8"
         d="m 29.19,17.53 a 20.42,20.42 0 0 0 -11,31.39 20.06,20.06 0 0 1 1.27,-6.4 16.32,16.32 0 0 1 6.75,-19.2 16.62,16.62 0 0 1 5.52,-2.19 16.54,16.54 0 0 1 4,-4.38 20.43,20.43 0 0 0 -6.54,0.78 z"
         id="path27" />
      <path
         class="cls-9"
         d="M 26.92,38.16 A 20.21,20.21 0 0 1 25.53,33.88"
         id="path28" />
      <path
         class="cls-9"
         d="M 57.16,58.06 A 19.76,19.76 0 0 1 52.67,57.84"
         id="path29" />
      <path
         class="cls-9"
         d="m 41.76,29.45 a 16.4,16.4 0 0 0 -1.52,3.49 20.29,20.29 0 0 1 5.28,-2.52 20.78,20.78 0 0 0 -3.76,-0.97 z"
         id="path30" />
      <path
         class="cls-9"
         d="m 29.29,31.42 a 20.44,20.44 0 0 0 -3.76,2.46 20.21,20.21 0 0 0 1.39,4.28 16,16 0 0 1 3.34,-2.61 16.32,16.32 0 0 1 5.62,-2 20.31,20.31 0 0 1 1.39,-4.27 20.31,20.31 0 0 0 -7.98,2.14 z"
         id="path31" />
      <path
         class="cls-9"
         d="M 38.88,66 A 16.31,16.31 0 0 1 22.71,53.59 v 0 a 16.58,16.58 0 0 1 -0.38,-5.92 16.57,16.57 0 0 1 -2.93,-5.15 20.33,20.33 0 0 0 -1.26,6.4 v 0 A 20.44,20.44 0 0 0 44.58,69.14 20.44,20.44 0 0 1 38.88,66 Z"
         id="path32" />
      <path
         class="cls-9"
         d="m 58.56,45.51 a 20.35,20.35 0 0 0 -3.31,-7.65 20.23,20.23 0 0 0 -4,-4.25 h -0.44 a 16,16 0 0 0 -5.36,1.18 17.3,17.3 0 0 1 2.74,1.6 16.63,16.63 0 0 1 2.9,2.71 16.2,16.2 0 0 1 2.77,4.74 c 0.06,0.13 0.1,0.27 0.15,0.41 a 16.42,16.42 0 0 1 0.33,9.67 15.92,15.92 0 0 0 4.24,-0.14 20.44,20.44 0 0 0 -0.02,-8.27 z"
         id="path33" />
      <path
         class="cls-10"
         d="m 35.45,37.38 a 19.56,19.56 0 0 0 -2.09,3.28 16.7,16.7 0 0 0 2.85,2.52 20,20 0 0 1 -0.76,-5.8 z"
         id="path34" />
      <path
         class="cls-10"
         d="m 37.05,57.46 a 20.42,20.42 0 0 1 -4.49,0"
         id="path35" />
      <path
         class="cls-10"
         d="m 65.33,34.85 a 20.24,20.24 0 0 1 -1.6,4.2"
         id="path36" />
      <path
         class="cls-7"
         d="m 61.69,32.21 a 15.89,15.89 0 0 1 -1.17,4.07 16.17,16.17 0 0 1 -3.34,5 20.67,20.67 0 0 1 1.38,4.27 20.64,20.64 0 0 0 6.77,-10.66 20.57,20.57 0 0 0 -3.64,-2.68 z"
         id="path37" />
      <path
         class="cls-10"
         d="m 35.61,53.48 a 16.28,16.28 0 0 1 -0.21,-6 20.54,20.54 0 0 1 -3.63,-2.64 20.56,20.56 0 0 0 -0.39,8.27 20.15,20.15 0 0 0 1.18,4.33 20.42,20.42 0 0 0 4.49,0 16.39,16.39 0 0 1 -1.44,-3.96 z"
         id="path38" />
      <path
         class="cls-10"
         d="M 67.19,54.67 A 16.35,16.35 0 0 1 44.69,64.76 16.34,16.34 0 0 1 38.88,66 20.43,20.43 0 0 0 72,50.23 20.27,20.27 0 0 1 67.19,54.67 Z"
         id="path39" />
      <path
         class="cls-10"
         d="m 53.83,29.64 a 19.92,19.92 0 0 0 -4.5,0 20.07,20.07 0 0 0 -9.09,3.3 c 0,0.14 -0.09,0.28 -0.12,0.42 a 15.91,15.91 0 0 0 -0.54,5.47 16,16 0 0 1 2.42,-2.11 15.79,15.79 0 0 1 3.47,-1.92 16,16 0 0 1 5.36,-1.18 h 0.44 A 16,16 0 0 1 55,34 a 16.29,16.29 0 0 1 5.51,2.31 15.89,15.89 0 0 0 1.17,-4.07 20.46,20.46 0 0 0 -7.85,-2.6 z"
         id="path40" />
      <path
         class="cls-11"
         d="m 45.78,19.91 a 20.34,20.34 0 0 1 3.5,2.81"
         id="path41" />
      <path
         class="cls-11"
         d="m 58.55,53.79 a 20.28,20.28 0 0 1 -1.39,4.27"
         id="path42" />
      <path
         class="cls-11"
         d="m 41.42,52.11 a 16.33,16.33 0 0 0 3.28,-1.93 20.62,20.62 0 0 1 -5.7,-1.07 20.42,20.42 0 0 0 2.42,3 z"
         id="path43" />
      <path
         class="cls-7"
         d="m 62.46,18.34 a 20.42,20.42 0 0 0 -33.27,-0.81 20.43,20.43 0 0 1 6.49,-0.78 16.33,16.33 0 0 1 20.34,0.5 16.41,16.41 0 0 1 3.79,4.57 16.39,16.39 0 0 1 5.4,2.45 20.2,20.2 0 0 0 -2.75,-5.93 z"
         id="path44" />
      <path
         class="cls-8"
         d="m 49.28,22.72 a 20.34,20.34 0 0 0 -3.5,-2.81 20.39,20.39 0 0 0 -3.64,2.64 15.86,15.86 0 0 1 3.52,2.37 16.33,16.33 0 0 1 3.67,4.72 19.92,19.92 0 0 1 4.5,0 20.56,20.56 0 0 0 -4.55,-6.92 z"
         id="path45" />
      <path
         class="cls-8"
         d="m 53.83,43.85 a 16.2,16.2 0 0 0 -2.77,-4.74 16.44,16.44 0 0 1 -0.69,3.1 16.14,16.14 0 0 1 -1.67,3.59 16.35,16.35 0 0 1 -3.65,4.11 l -0.35,0.27 a 16.35,16.35 0 0 1 -9.09,3.3 16.39,16.39 0 0 0 1.44,4 20.25,20.25 0 0 0 11.51,-5.18 20.41,20.41 0 0 0 5.42,-8 C 53.93,44.12 53.89,44 53.83,43.85 Z"
         id="path46" />
      <path
         class="cls-11"
         d="m 54.31,53.93 a 16.4,16.4 0 0 1 -5.75,-1.65 20.41,20.41 0 0 1 -3.63,2.64 20.55,20.55 0 0 0 7.74,2.92 19.76,19.76 0 0 0 4.49,0.22 20.28,20.28 0 0 0 1.39,-4.27 15.92,15.92 0 0 1 -4.24,0.14 z"
         id="path47" />
      <path
         class="cls-11"
         d="m 75.3,31.36 a 20.4,20.4 0 0 0 -12.84,-13 20.2,20.2 0 0 1 2.75,5.93 16.35,16.35 0 0 1 2.64,24.51 16.5,16.5 0 0 1 -0.66,5.89 20.41,20.41 0 0 0 8.11,-23.33 z"
         id="path48" />
      <path
         class="cls-7"
         d="m 45.54,46.11 a 16.54,16.54 0 0 1 -3.94,-0.48 16.32,16.32 0 0 1 -5,-2.2 l -0.36,-0.25 a 16.7,16.7 0 0 1 -2.85,-2.52 16.28,16.28 0 0 1 -3.1,-5.11 16,16 0 0 0 -3.34,2.61 20.33,20.33 0 0 0 8.45,9.34 21.08,21.08 0 0 0 3.6,1.61 20.62,20.62 0 0 0 5.75,1.07 l 0.35,-0.27 a 16.35,16.35 0 0 0 3.6,-4.11 16.44,16.44 0 0 1 -3.16,0.31 z"
         id="path49" />
      <path
         class="cls-11"
         d="m 42.14,22.55 a 20.4,20.4 0 0 0 -6.26,11 20.27,20.27 0 0 0 0.33,9.67 l 0.36,0.25 a 16.32,16.32 0 0 0 5,2.2 17.3,17.3 0 0 1 -1.27,-2.91 16.2,16.2 0 0 1 -0.75,-3.89 15.91,15.91 0 0 1 0.54,-5.47 c 0,-0.14 0.08,-0.28 0.12,-0.42 a 16.4,16.4 0 0 1 1.52,-3.49 16.22,16.22 0 0 1 3.9,-4.53 15.86,15.86 0 0 0 -3.49,-2.41 z"
         id="path50" />
      <rect
         class="cls-6"
         width="90.169998"
         height="90.169998"
         id="rect50"
         x="0"
         y="0" />
    </g>
  </g>
</svg>
