<svg id="Layer_3" height="512" viewBox="0 0 64 64" width="512" xmlns="http://www.w3.org/2000/svg" data-name="Layer 3"><path d="m32 8a25 25 0 0 0 -25 25v5h6v-5a19 19 0 0 1 38 0v5h6v-5a25 25 0 0 0 -25-25z" fill="#3079e6"/><circle cx="48" cy="16" fill="#559b38" r="14"/><path d="m48 2a13.99 13.99 0 0 0 -11.48 22h14.48a6 6 0 0 0 6-6v-12.717a13.938 13.938 0 0 0 -9-3.283z" fill="#6bc148"/><rect fill="#7cdf54" height="11" rx="2" width="14" x="38" y="8"/><g fill="#fff"><path d="m40 8h2v16h-2z"/><path d="m47 8h2v16h-2z"/><path d="m54 8h2v16h-2z"/></g><path d="m8 42h6a0 0 0 0 1 0 0v20a0 0 0 0 1 0 0h-6a2 2 0 0 1 -2-2v-16a2 2 0 0 1 2-2z" fill="#3079e6"/><path d="m8 38h4v4h-4z" fill="#ccc"/><path d="m4 44a2 2 0 0 0 -2 2v12a2 2 0 0 0 2 2h2v-16z" fill="#2763bb"/><path d="m52 42h6a0 0 0 0 1 0 0v20a0 0 0 0 1 0 0h-6a2 2 0 0 1 -2-2v-16a2 2 0 0 1 2-2z" fill="#3079e6" transform="matrix(-1 0 0 -1 108 104)"/><path d="m52 38h4v4h-4z" fill="#ccc"/><path d="m60 44a2 2 0 0 1 2 2v12a2 2 0 0 1 -2 2h-2v-16z" fill="#2763bb"/><path d="m16 44h-2v16h2a2 2 0 0 0 2-2v-12a2 2 0 0 0 -2-2z" fill="#ccc"/><path d="m48 44h2v16h-2a2 2 0 0 1 -2-2v-12a2 2 0 0 1 2-2z" fill="#ccc"/><circle cx="41" cy="17" fill="#fff" r="2"/><circle cx="48" cy="19" fill="#fff" r="2"/><circle cx="55" cy="13" fill="#fff" r="2"/></svg>