<svg id="Layer_3" height="512" viewBox="0 0 64 64" width="512" xmlns="http://www.w3.org/2000/svg" data-name="Layer 3"><ellipse cx="49" cy="46" fill="#71492a" rx="7" ry="5" transform="matrix(.707 -.707 .707 .707 -18.175 48.121)"/><path d="m51 62a30 30 0 0 0 -18-6h-2a30 30 0 0 0 -18 6z" fill="#7f5433"/><path d="m51.707 20.707-1.414-1.414-17.348 17.348a30.769 30.769 0 0 0 -9.025-20.135l-9.213-9.213-1.414 1.414 9.213 9.213a28.813 28.813 0 0 1 8.494 20.506v17.574h2v-16.586z" fill="#a66a43"/><path d="m29 2a0 0 0 0 1 0 0v4a8 8 0 0 1 -8 8 0 0 0 0 1 0 0v-4a8 8 0 0 1 8-8z" fill="#4c8056"/><path d="m45 27h4a8 8 0 0 1 8 8 0 0 0 0 1 0 0h-4a8 8 0 0 1 -8-8 0 0 0 0 1 0 0z" fill="#4c8056"/><path d="m49 27h-2.931a8 8 0 0 0 7.931 7h2.931a8 8 0 0 0 -7.931-7z" fill="#4fba70"/><path d="m21 12.931a8 8 0 0 0 7-7.931v-2.931a8 8 0 0 0 -7 7.931z" fill="#4fba70"/><path d="m50.533 20.707-.827-.827-16.761 16.761c-.021-.364-.053-.726-.086-1.088l-1.088 1.088a30.768 30.768 0 0 0 -9.024-20.135l-8.627-8.626-.827.827 9.213 9.213a28.813 28.813 0 0 1 8.494 20.506v17.574h.826v-16.586z" fill="#7f5433"/><path d="m57 10a0 0 0 0 1 0 0v4a8 8 0 0 1 -8 8 0 0 0 0 1 0 0v-4a8 8 0 0 1 8-8z" fill="#4c8056"/><path d="m49 20.931a8 8 0 0 0 7-7.931v-2.931a8 8 0 0 0 -7 7.931z" fill="#4fba70"/><path d="m35 20h4a6 6 0 0 1 6 6 0 0 0 0 1 0 0h-4a6 6 0 0 1 -6-6 0 0 0 0 1 0 0z" fill="#4c8056"/><path d="m39 20h-2.91a6 6 0 0 0 5.91 5h2.91a6 6 0 0 0 -5.91-5z" fill="#4fba70"/><path d="m2 2h6a8 8 0 0 1 8 8 0 0 0 0 1 0 0h-6a8 8 0 0 1 -8-8 0 0 0 0 1 0 0z" fill="#4c8056"/><path d="m8 2h-4.931a8 8 0 0 0 7.931 7h4.931a8 8 0 0 0 -7.931-7z" fill="#4fba70"/><path d="m19 22h8a0 0 0 0 1 0 0 8 8 0 0 1 -8 8h-8a0 0 0 0 1 0 0 8 8 0 0 1 8-8z" fill="#4c8056"/><path d="m11.069 29h6.931a8 8 0 0 0 7.931-7h-6.931a8 8 0 0 0 -7.931 7z" fill="#4fba70"/><path d="m31 52.872h2v3.128h-2z" opacity=".3"/><path d="m1 61h62v2h-62z" fill="#a66a43"/><ellipse cx="40" cy="46" fill="#7f5433" rx="5" ry="7"/><path d="m42 52.414v-2.178a10.53 10.53 0 0 0 -1.1-4.683 8.509 8.509 0 0 1 -.9-3.789v-2.764a3.807 3.807 0 0 0 -2 .586v2.178a10.53 10.53 0 0 0 1.1 4.683 8.509 8.509 0 0 1 .9 3.789v2.764a3.807 3.807 0 0 0 2-.586z" fill="#71492a"/><path d="m52.051 40.037-1.551 1.553a10.516 10.516 0 0 0 -2.53 4.094 8.53 8.53 0 0 1 -2.049 3.316l-1.909 1.909c.013.014.024.031.038.045a3.8 3.8 0 0 0 1.76.985l1.525-1.525a10.523 10.523 0 0 0 2.531-4.094 8.516 8.516 0 0 1 2.046-3.32l1.993-1.993a3.831 3.831 0 0 0 -1.854-.97z" fill="#7f5433"/></svg>