<svg id="Layer_3" height="512" viewBox="0 0 64 64" width="512" xmlns="http://www.w3.org/2000/svg" data-name="Layer 3"><path d="m56 42v4h-54v-4l9-29h36z" fill="#f2f2f2"/><path d="m50 38h-42l6-21h30z" fill="#bce4f8"/><path d="m43 17h-29l-4.857 17h30.857a3 3 0 0 0 3-3z" fill="#e4f5fd"/><rect fill="#eff9fe" height="11" rx="2" width="22" x="16" y="21"/><path d="m9 46v1a3 3 0 0 0 3 3h34a3 3 0 0 0 3-3v-1z" fill="#bebebe"/><path d="m21 58h16a2 2 0 0 1 2 2v2a0 0 0 0 1 0 0h-20a0 0 0 0 1 0 0v-2a2 2 0 0 1 2-2z" fill="#bebebe"/><path d="m25 50h8v8h-8z" fill="#ccc"/><path d="m40.9 32h7.387l-.572-2h-7.2l-.962-5h6.734l-.572-2h-6.548l-1.154-6h-2.037l1.155 6h-7.131v-6h-2v6h-7.084l1.133-6h-2.035l-1.133 6h-6.6l-.572 2h6.791l-.944 5h-7.27l-.572 2h7.467l-1.134 6h2.035l1.134-6h8.784v6h2v-6h8.862l1.155 6h2.036zm-12.9-2h-8.407l.945-5h7.462zm2 0v-5h7.515l.962 5z" fill="#fff"/><path d="m2 42h54v4h-54z" fill="#ccc"/><circle cx="47" cy="17" fill="#a9a9a9" r="15"/><path d="m50 7v8.082l-3 2.918-3-2.918v-8.082a8.666 8.666 0 0 0 0 16.491v8.209a15.1 15.1 0 0 0 6 0v-8.209a8.666 8.666 0 0 0 0-16.491z" fill="#686868"/></svg>