<?xml version="1.0" encoding="iso-8859-1"?>
<!-- Generator: Adobe Illustrator 22.1.0, SVG Export Plug-In . SVG Version: 6.00 Build 0)  -->
<svg xmlns="http://www.w3.org/2000/svg" xmlns:xlink="http://www.w3.org/1999/xlink" version="1.1" id="Layer_3" x="0px" y="0px" viewBox="0 0 64 64" style="enable-background:new 0 0 64 64;" xml:space="preserve" width="512" height="512">
<g>
	<polyline style="fill:#FED579;" points="17,49 17,55 22,60 27,55 27,49  "/>
	<polygon style="fill:#FEDF9A;" points="20.5,58.5 24,55 24,49 17,49 17,55  "/>
	<path style="fill:#FED579;" d="M26,50h-8c-7.18,0-13-5.82-13-13V16h34v21C39,44.18,33.18,50,26,50z"/>
	<path style="fill:#FEDF9A;" d="M35,37V16H5v21c0,7.18,5.82,13,13,13h4C29.18,50,35,44.18,35,37z"/>
	<circle style="fill:#798490;" cx="22" cy="43" r="3"/>
	<ellipse style="fill:#9AA3AC;" cx="20.5" cy="43" rx="1.5" ry="2.584"/>
	<path style="fill:#FF6B6B;" d="M3,63v-1.172C3,60.017,3.719,58.281,5,57l0,0c1.281-1.281,3.017-2,4.828-2H17l5,5l5-5h7.172   c1.811,0,3.548,0.719,4.828,2l0,0c1.281,1.281,2,3.017,2,4.828V63"/>
	<path style="fill:#414C57;" d="M5,16l-0.525-0.525C2.89,13.89,2,11.741,2,9.5v0c0-2.241,0.89-4.39,2.475-5.975L6,2l4,4l4-4l4,4l4-4   l4,4l4-4l4,4l4-4l1.525,1.525C41.11,5.11,42,7.259,42,9.5v0c0,2.241-0.89,4.39-2.475,5.975L39,16"/>
	<path style="fill:#798490;" d="M42,23.414v7.464c0,1.358-0.54,2.661-1.5,3.621l0,0c-0.96,0.96-2.263,1.5-3.621,1.5h-9.757   c-1.358,0-2.661-0.54-3.621-1.5L22,33l-1.5,1.5c-0.96,0.96-2.263,1.5-3.621,1.5H7.121C5.763,36,4.46,35.46,3.5,34.5l0,0   C2.54,33.54,2,32.237,2,30.879v-7.464C2,22.509,2.36,21.64,3,21l0,0c0.64-0.64,1.509-1,2.414-1h33.172c0.906,0,1.774,0.36,2.414,1   v0C41.64,21.64,42,22.509,42,23.414z"/>
	<path style="fill:#9AA3AC;" d="M39,30.879v-7.464c0-0.906-0.36-1.774-1-2.414c-0.64-0.64-1.509-1-2.414-1H5.414   C4.509,20,3.64,20.36,3,21c-0.64,0.64-1,1.509-1,2.414v7.464c0,1.358,0.54,2.661,1.5,3.621S5.763,36,7.121,36h6.757   c1.358,0,2.661-0.54,3.621-1.5L19,33l1.5,1.5L22,33l1.5,1.5c0.96,0.96,2.263,1.5,3.621,1.5h6.757c1.358,0,2.661-0.54,3.621-1.5   S39,32.237,39,30.879z"/>
	<g>
		<path style="fill:#5B636C;" d="M13,31c-3.309,0-6-2.691-6-6h2c0,2.206,1.794,4,4,4s4-1.794,4-4h2C19,28.309,16.309,31,13,31z"/>
	</g>
	<g>
		<rect x="12" y="30" style="fill:#5B636C;" width="2" height="3"/>
	</g>
	<g>
		
			<rect x="7.586" y="29" transform="matrix(0.7071 -0.7071 0.7071 0.7071 -18.5772 15.1508)" style="fill:#5B636C;" width="2.828" height="2"/>
	</g>
	<g>
		
			<rect x="16" y="28.586" transform="matrix(0.7071 -0.7071 0.7071 0.7071 -16.234 20.8076)" style="fill:#5B636C;" width="2" height="2.828"/>
	</g>
	<g>
		<path style="fill:#5B636C;" d="M31,31c-3.309,0-6-2.691-6-6h2c0,2.206,1.794,4,4,4s4-1.794,4-4h2C37,28.309,34.309,31,31,31z"/>
	</g>
	<g>
		<rect x="30" y="30" style="fill:#5B636C;" width="2" height="3"/>
	</g>
	<g>
		
			<rect x="25.586" y="29" transform="matrix(0.7071 -0.7071 0.7071 0.7071 -13.3051 27.8787)" style="fill:#5B636C;" width="2.828" height="2"/>
	</g>
	<g>
		
			<rect x="34" y="28.586" transform="matrix(0.7071 -0.7071 0.7071 0.7071 -10.9619 33.5355)" style="fill:#5B636C;" width="2" height="2.828"/>
	</g>
	<g>
		<path style="fill:#9AA3AC;" d="M55,22h-7c-0.404,0-0.769-0.244-0.924-0.617c-0.155-0.374-0.069-0.804,0.217-1.09L51.586,16H47v-2    h7c0.404,0,0.769,0.244,0.924,0.617c0.155,0.374,0.069,0.804-0.217,1.09L50.414,20H55V22z"/>
	</g>
	<g>
		<path style="fill:#9AA3AC;" d="M63,9h-7c-0.404,0-0.769-0.244-0.924-0.617c-0.155-0.374-0.069-0.804,0.217-1.09L59.586,3H55V1h7    c0.404,0,0.769,0.244,0.924,0.617c0.155,0.374,0.069,0.804-0.217,1.09L58.414,7H63V9z"/>
	</g>
</g>
</svg>
