<?xml version="1.0" encoding="UTF-8" standalone="no"?>
<!-- Created with Inkscape (http://www.inkscape.org/) -->

<svg
   xmlns:dc="http://purl.org/dc/elements/1.1/"
   xmlns:cc="http://creativecommons.org/ns#"
   xmlns:rdf="http://www.w3.org/1999/02/22-rdf-syntax-ns#"
   xmlns:svg="http://www.w3.org/2000/svg"
   xmlns="http://www.w3.org/2000/svg"
   xmlns:sodipodi="http://sodipodi.sourceforge.net/DTD/sodipodi-0.dtd"
   xmlns:inkscape="http://www.inkscape.org/namespaces/inkscape"
   id="svg3004"
   version="1.1"
   inkscape:version="0.91 r13725"
   width="475.85553"
   height="153.87743"
   xml:space="preserve"
   sodipodi:docname="Logo_labok.svg"
   inkscape:export-filename="/home/nedjar/Bureau/Dropbox/LAB/Logo_labo-135px.png"
   inkscape:export-xdpi="24.299999"
   inkscape:export-ydpi="24.299999"><sodipodi:namedview
     pagecolor="#ffffff"
     bordercolor="#666666"
     borderopacity="1"
     objecttolerance="10"
     gridtolerance="10"
     guidetolerance="10"
     inkscape:pageopacity="0"
     inkscape:pageshadow="2"
     inkscape:window-width="1920"
     inkscape:window-height="1017"
     id="namedview3006"
     showgrid="false"
     fit-margin-top="2"
     fit-margin-left="1"
     fit-margin-right="1"
     fit-margin-bottom="2"
     inkscape:zoom="1.814009"
     inkscape:cx="111.47526"
     inkscape:cy="97.118342"
     inkscape:window-x="-8"
     inkscape:window-y="-8"
     inkscape:window-maximized="1"
     inkscape:current-layer="g27853" /><metadata
     id="metadata3010"><rdf:RDF><cc:Work
         rdf:about=""><dc:format>image/svg+xml</dc:format><dc:type
           rdf:resource="http://purl.org/dc/dcmitype/StillImage" /><dc:title></dc:title></cc:Work></rdf:RDF></metadata><defs
     id="defs3008"><clipPath
       clipPathUnits="userSpaceOnUse"
       id="clipPath3030"><path
         d="m 195.266,192.04 40.055,0 0,-12.635 -40.055,0 0,12.635 z"
         id="path3032"
         inkscape:connector-curvature="0" /></clipPath><clipPath
       clipPathUnits="userSpaceOnUse"
       id="clipPath3046"><path
         d="m 195.266,137.076 43.199,0 0,-12.637 -43.199,0 0,12.637 z"
         id="path3048"
         inkscape:connector-curvature="0" /></clipPath><clipPath
       clipPathUnits="userSpaceOnUse"
       id="clipPath3062"><path
         d="m 222.686,192.114 25.652,0 0,-38.669 -25.652,0 0,38.669 z"
         id="path3064"
         inkscape:connector-curvature="0" /></clipPath><clipPath
       clipPathUnits="userSpaceOnUse"
       id="clipPath3078"><path
         d="m 222.688,166.082 30.28,0 0,-41.643 -30.28,0 0,41.643 z"
         id="path3080"
         inkscape:connector-curvature="0" /></clipPath><clipPath
       clipPathUnits="userSpaceOnUse"
       id="clipPath3094"><path
         d="m 195.266,166.08 40.057,0 0,-12.635 -40.057,0 0,12.635 z"
         id="path3096"
         inkscape:connector-curvature="0" /></clipPath><clipPath
       clipPathUnits="userSpaceOnUse"
       id="clipPath3114"><path
         d="m 130.862,190.777 40.557,0 0,-67.601 -40.557,0 0,67.601 z"
         id="path3116"
         inkscape:connector-curvature="0" /></clipPath><clipPath
       clipPathUnits="userSpaceOnUse"
       id="clipPath3130"><path
         d="m 109.143,147.991 56.086,0 0,-12.636 -56.086,0 0,12.636 z"
         id="path3132"
         inkscape:connector-curvature="0" /></clipPath><clipPath
       clipPathUnits="userSpaceOnUse"
       id="clipPath3146"><path
         d="m 34.7939,192.145 12.6358,0 0,-67.6 -12.6358,0 0,67.6 z"
         id="path3148"
         inkscape:connector-curvature="0" /></clipPath><clipPath
       clipPathUnits="userSpaceOnUse"
       id="clipPath3162"><path
         d="m 34.7939,137.18 45.1719,0 0,-12.635 -45.1719,0 0,12.635 z"
         id="path3164"
         inkscape:connector-curvature="0" /></clipPath><clipPath
       clipPathUnits="userSpaceOnUse"
       id="clipPath3178"><path
         d="m 85.6699,137.107 12.6358,0 0,-13.864 -12.6358,0 0,13.864 z"
         id="path3180"
         inkscape:connector-curvature="0" /></clipPath><clipPath
       clipPathUnits="userSpaceOnUse"
       id="clipPath3194"><path
         d="m 177.245,137.002 12.636,0 0,-13.864 -12.636,0 0,13.864 z"
         id="path3196"
         inkscape:connector-curvature="0" /></clipPath></defs><g
     inkscape:groupmode="layer"
     id="layer2"
     inkscape:label="Lettres"
     style="display:inline"
     sodipodi:insensitive="true"
     transform="translate(-12.072237,-173.06129)"><g
       style="display:inline;opacity:0.8"
       id="g3110"
       transform="matrix(2.1719196,0,0,-2.1719196,-62.497316,592.38456)"><g
         id="g3112" /><g
         id="g3118"><g
           clip-path="url(#clipPath3114)"
           id="g3120"><g
             transform="translate(165.1055,123.1758)"
             id="g3122"><path
               d="m 0,0 c -2.304,0 -4.524,1.264 -5.639,3.457 l -27.918,54.965 c -1.58,3.111 -0.339,6.914 2.773,8.494 3.11,1.579 6.913,0.339 8.494,-2.772 L 5.627,9.18 C 7.207,6.068 5.966,2.266 2.855,0.686 1.938,0.22 0.962,0 0,0"
               style="fill:#66c430;fill-opacity:1;fill-rule:nonzero;stroke:none"
               id="path3124"
               inkscape:connector-curvature="0" /></g></g></g></g><g
       style="display:inline;opacity:0.8"
       id="g3126"
       transform="matrix(2.1719196,0,0,-2.1719196,-62.497316,592.38456)"><g
         id="g3128" /><g
         id="g3134"><g
           clip-path="url(#clipPath3130)"
           id="g3136"><g
             transform="translate(158.9111,135.3555)"
             id="g3138"><path
               d="m 0,0 -43.451,0 c -3.488,0 -6.318,2.828 -6.318,6.318 0,3.489 2.83,6.317 6.318,6.317 l 43.451,0 c 3.489,0 6.318,-2.828 6.318,-6.317 C 6.318,2.828 3.489,0 0,0"
               style="fill:#ec0d5d;fill-opacity:1;fill-rule:nonzero;stroke:none"
               id="path3140"
               inkscape:connector-curvature="0" /></g></g></g></g><g
       style="display:inline;opacity:0.8"
       id="g3106"
       transform="matrix(2.1719196,0,0,-2.1719196,174.8051,324.85662)"><path
         d="m 0,0 c -0.962,0 -1.939,0.22 -2.856,0.686 -3.11,1.58 -4.352,5.382 -2.771,8.494 L 22.29,64.144 c 1.58,3.111 5.382,4.352 8.494,2.772 3.111,-1.58 4.352,-5.383 2.772,-8.494 L 5.638,3.457 C 4.524,1.264 2.303,0 0,0"
         style="fill:#3580cb;fill-opacity:1;fill-rule:nonzero;stroke:none"
         id="path3108"
         inkscape:connector-curvature="0" /></g><g
       style="display:inline;opacity:0.8"
       id="g3174"
       transform="matrix(2.1726416,0,0,-1.9801976,-62.559164,568.75613)"><g
         id="g3176" /><g
         id="g3182"><g
           clip-path="url(#clipPath3178)"
           id="g3184"><g
             transform="translate(91.9878,123.2432)"
             id="g3186"><path
               d="m 0,0 c -3.489,0 -6.318,2.828 -6.318,6.317 l 0,1.23 c 0,3.489 2.829,6.317 6.318,6.317 3.489,0 6.318,-2.828 6.318,-6.317 l 0,-1.23 C 6.318,2.828 3.489,0 0,0"
               style="fill:#ed1e24;fill-opacity:1;fill-rule:nonzero;stroke:none"
               id="path3188"
               inkscape:connector-curvature="0" /></g></g></g></g><g
       style="display:inline;opacity:0.8"
       id="g3158"
       transform="matrix(2.1719196,0,0,-2.1719196,-62.497316,592.38456)"><g
         id="g3160" /><g
         id="g3166"><g
           clip-path="url(#clipPath3162)"
           id="g3168"><g
             transform="translate(73.6479,124.5449)"
             id="g3170"><path
               d="m 0,0 -32.536,0 c -3.489,0 -6.318,2.828 -6.318,6.317 0,3.49 2.829,6.318 6.318,6.318 l 32.536,0 c 3.489,0 6.318,-2.828 6.318,-6.318 C 6.318,2.828 3.489,0 0,0"
               style="fill:#ec0d5d;fill-opacity:1;fill-rule:nonzero;stroke:none"
               id="path3172"
               inkscape:connector-curvature="0" /></g></g></g></g><g
       style="display:inline;opacity:0.8"
       id="g3142"
       transform="matrix(2.1719196,0,0,-2.1719196,-62.497316,592.38456)"><g
         id="g3144" /><g
         id="g3150"><g
           clip-path="url(#clipPath3146)"
           id="g3152"><g
             transform="translate(41.1118,124.5449)"
             id="g3154"><path
               d="m 0,0 c -3.489,0 -6.318,2.828 -6.318,6.317 l 0,54.965 c 0,3.489 2.829,6.318 6.318,6.318 3.489,0 6.318,-2.829 6.318,-6.318 l 0,-54.965 C 6.318,2.828 3.489,0 0,0"
               style="fill:#66c430;fill-opacity:1;fill-rule:nonzero;stroke:none"
               id="path3156"
               inkscape:connector-curvature="0" /></g></g></g></g><g
       style="display:inline;opacity:0.8"
       id="g3190"
       transform="matrix(2.172779,0,0,-1.9802119,-62.649656,568.77805)"><g
         id="g3192" /><g
         id="g3198"><g
           clip-path="url(#clipPath3194)"
           id="g3200"><g
             transform="translate(183.5635,123.1377)"
             id="g3202"><path
               d="m 0,0 c -3.489,0 -6.318,2.828 -6.318,6.317 l 0,1.231 c 0,3.488 2.829,6.316 6.318,6.316 3.489,0 6.317,-2.828 6.317,-6.316 l 0,-1.231 C 6.317,2.828 3.489,0 0,0"
               style="fill:#ed1e24;fill-opacity:1;fill-rule:nonzero;stroke:none"
               id="path3204"
               inkscape:connector-curvature="0" /></g></g></g></g><g
       style="display:inline;opacity:0.8"
       id="g3022"
       transform="matrix(2.1719196,0,0,-2.1719196,375.32476,322.11196)"><path
         d="m 0,0 c -3.488,0 -6.317,2.829 -6.317,6.318 l 0,54.965 c 0,3.489 2.829,6.318 6.317,6.318 3.489,0 6.317,-2.829 6.317,-6.318 l 0,-54.965 C 6.317,2.829 3.489,0 0,0"
         style="fill:#4081cb;fill-opacity:1;fill-rule:nonzero;stroke:none"
         id="path3024"
         inkscape:connector-curvature="0" /></g><g
       style="display:inline;opacity:0.8"
       id="g3026"
       transform="matrix(2.1719196,0,0,-2.1719196,-62.497316,592.38456)"><g
         id="g3028" /><g
         id="g3034"><g
           clip-path="url(#clipPath3030)"
           id="g3036"><g
             transform="translate(229.0029,179.4048)"
             id="g3038"><path
               d="m 0,0 -27.42,0 c -3.488,0 -6.317,2.829 -6.317,6.318 0,3.489 2.829,6.317 6.317,6.317 l 27.42,0 c 3.489,0 6.318,-2.828 6.318,-6.317 C 6.318,2.829 3.489,0 0,0"
               style="fill:#ec0d5d;fill-opacity:1;fill-rule:nonzero;stroke:none"
               id="path3040"
               inkscape:connector-curvature="0" /></g></g></g></g><g
       style="display:inline;opacity:0.8"
       id="g3058"
       transform="matrix(2.1719196,0,0,-2.1719196,-62.497316,592.38456)"><g
         id="g3060" /><g
         id="g3066"><g
           clip-path="url(#clipPath3062)"
           id="g3068"><g
             transform="translate(229.0029,153.4448)"
             id="g3070"><path
               d="m 0,0 c -3.489,0 -6.317,2.828 -6.317,6.317 0,3.49 2.828,6.318 6.317,6.318 3.694,0 6.7,3.006 6.7,6.7 0,3.694 -3.006,6.699 -6.7,6.699 -3.489,0 -6.317,2.828 -6.317,6.318 0,3.489 2.828,6.317 6.317,6.317 10.661,0 19.335,-8.673 19.335,-19.334 C 19.335,8.673 10.661,0 0,0"
               style="fill:#8a3ea4;fill-opacity:1;fill-rule:nonzero;stroke:none"
               id="path3072"
               inkscape:connector-curvature="0" /></g></g></g></g><g
       style="display:inline;opacity:0.8"
       id="g3090"
       transform="matrix(2.1719196,0,0,-2.1719196,-62.497316,592.38456)"><g
         id="g3092" /><g
         id="g3098"><g
           clip-path="url(#clipPath3094)"
           id="g3100"><g
             transform="translate(229.0059,153.4448)"
             id="g3102"><path
               d="m 0,0 -27.423,0 c -3.488,0 -6.317,2.828 -6.317,6.317 0,3.49 2.829,6.318 6.317,6.318 l 27.423,0 c 3.489,0 6.317,-2.828 6.317,-6.318 C 6.317,2.828 3.489,0 0,0"
               style="fill:#f25c19;fill-opacity:1;fill-rule:nonzero;stroke:none"
               id="path3104"
               inkscape:connector-curvature="0" /></g></g></g></g><g
       style="display:inline;opacity:0.8"
       id="g3074"
       transform="matrix(2.1719196,0,0,-2.1719196,-62.497316,592.38456)"><g
         id="g3076" /><g
         id="g3082"><g
           clip-path="url(#clipPath3078)"
           id="g3084"><g
             transform="translate(232.1465,124.4395)"
             id="g3086"><path
               d="m 0,0 c -3.489,0 -6.317,2.829 -6.317,6.318 0,3.49 2.828,6.319 6.317,6.319 4.514,0 8.186,3.671 8.186,8.184 0,4.513 -3.672,8.185 -8.186,8.185 l -3.138,-0.001 -0.003,0 c -3.488,0 -6.316,2.827 -6.317,6.315 -0.002,3.49 2.826,6.32 6.315,6.321 l 3.141,0.001 c 11.482,0 20.823,-9.34 20.823,-20.821 C 20.821,9.342 11.48,0 0,0"
               style="fill:#f89c0e;fill-opacity:1;fill-rule:nonzero;stroke:none"
               id="path3088"
               inkscape:connector-curvature="0" /></g></g></g></g><g
       style="display:inline;opacity:0.8"
       id="g3042"
       transform="matrix(2.1719196,0,0,-2.1719196,-62.497316,592.38456)"><g
         id="g3044" /><g
         id="g3050"><g
           clip-path="url(#clipPath3046)"
           id="g3052"><g
             transform="translate(232.1465,124.4395)"
             id="g3054"><path
               d="m 0,0 -30.563,0 c -3.489,0 -6.318,2.829 -6.318,6.318 0,3.49 2.829,6.319 6.318,6.319 l 30.563,0 c 3.489,0 6.318,-2.829 6.318,-6.319 C 6.318,2.829 3.489,0 0,0"
               style="fill:#66c430;fill-opacity:1;fill-rule:nonzero;stroke:none"
               id="path3056"
               inkscape:connector-curvature="0" /></g></g></g></g></g><g
     style="display:inline;opacity:0.46953406"
     inkscape:label="Lettres Obscurcies "
     id="g27853"
     inkscape:groupmode="layer"
     transform="translate(-12.072237,-173.06129)"><g
       transform="matrix(2.1719196,0,0,-2.1719196,-62.497316,592.38456)"
       id="g27971"
       style="display:inline;opacity:0.8"><g
         id="g27973" /><g
         id="g27975"><g
           id="g27977"
           clip-path="url(#clipPath3078)"><g
             id="g27979"
             transform="translate(232.1465,124.4395)"><path
               inkscape:connector-curvature="0"
               id="path27981"
               style="fill:#c67c0b;fill-opacity:1;fill-rule:nonzero;stroke:none"
               d="m 0,0 c -3.489,0 -6.317,2.829 -6.317,6.318 0,3.49 2.828,6.319 6.317,6.319 4.514,0 8.186,3.671 8.186,8.184 0,4.513 -3.672,8.185 -8.186,8.185 l -3.138,-0.001 -0.003,0 c -3.488,0 -6.316,2.827 -6.317,6.315 -0.002,3.49 2.826,6.32 6.315,6.321 l 3.141,0.001 c 11.482,0 20.823,-9.34 20.823,-20.821 C 20.821,9.342 11.48,0 0,0" /></g></g></g></g><g
       id="g27995"><g
         style="display:inline;opacity:0.8"
         id="g27855"
         transform="matrix(2.1719196,0,0,-2.1719196,-62.497316,592.38456)"><g
           id="g27857" /><g
           id="g27859"><g
             clip-path="url(#clipPath3114)"
             id="g27861"><g
               transform="translate(165.1055,123.1758)"
               id="g27863"><path
                 d="m 0,0 c -2.304,0 -4.524,1.264 -5.639,3.457 l -27.918,54.965 c -1.58,3.111 -0.339,6.914 2.773,8.494 3.11,1.579 6.913,0.339 8.494,-2.772 L 5.627,9.18 C 7.207,6.068 5.966,2.266 2.855,0.686 1.938,0.22 0.962,0 0,0"
                 style="fill:#40791d;fill-opacity:1;fill-rule:nonzero;stroke:none"
                 id="path27865"
                 inkscape:connector-curvature="0" /></g></g></g></g><g
         style="display:inline;opacity:0.8"
         id="g27867"
         transform="matrix(2.1719196,0,0,-2.1719196,-62.497316,592.38456)"><g
           id="g27869" /><g
           id="g27871"><g
             clip-path="url(#clipPath3130)"
             id="g27873"><g
               transform="translate(158.9111,135.3555)"
               id="g27875"><path
                 d="m 0,0 -43.451,0 c -3.488,0 -6.318,2.828 -6.318,6.318 0,3.489 2.83,6.317 6.318,6.317 l 43.451,0 c 3.489,0 6.318,-2.828 6.318,-6.317 C 6.318,2.828 3.489,0 0,0"
                 style="fill:#93083a;fill-opacity:1;fill-rule:nonzero;stroke:none"
                 id="path27877"
                 inkscape:connector-curvature="0" /></g></g></g></g><g
         style="display:inline;opacity:0.8"
         id="g27879"
         transform="matrix(2.1719196,0,0,-2.1719196,174.8051,324.85662)"><path
           d="m 0,0 c -0.962,0 -1.939,0.22 -2.856,0.686 -3.11,1.58 -4.352,5.382 -2.771,8.494 L 22.29,64.144 c 1.58,3.111 5.382,4.352 8.494,2.772 3.111,-1.58 4.352,-5.383 2.772,-8.494 L 5.638,3.457 C 4.524,1.264 2.303,0 0,0"
           style="fill:#215180;fill-opacity:1;fill-rule:nonzero;stroke:none"
           id="path27881"
           inkscape:connector-curvature="0" /></g><g
         style="display:inline;opacity:0.8"
         id="g27883"
         transform="matrix(2.1726416,0,0,-1.9801976,-62.559164,568.75613)"><g
           id="g27885" /><g
           id="g27887"><g
             clip-path="url(#clipPath3178)"
             id="g27889"><g
               transform="translate(91.9878,123.2432)"
               id="g27891"><path
                 d="m 0,0 c -3.489,0 -6.318,2.828 -6.318,6.317 l 0,1.23 c 0,3.489 2.829,6.317 6.318,6.317 3.489,0 6.318,-2.828 6.318,-6.317 l 0,-1.23 C 6.318,2.828 3.489,0 0,0"
                 style="fill:#961316;fill-opacity:1;fill-rule:nonzero;stroke:none"
                 id="path27893"
                 inkscape:connector-curvature="0" /></g></g></g></g><g
         style="display:inline;opacity:0.8"
         id="g27895"
         transform="matrix(2.1719196,0,0,-2.1719196,-62.497316,592.38456)"><g
           id="g27897" /><g
           id="g27899"><g
             clip-path="url(#clipPath3162)"
             id="g27901"><g
               transform="translate(73.6479,124.5449)"
               id="g27903"><path
                 d="m 0,0 -32.536,0 c -3.489,0 -6.318,2.828 -6.318,6.317 0,3.49 2.829,6.318 6.318,6.318 l 32.536,0 c 3.489,0 6.318,-2.828 6.318,-6.318 C 6.318,2.828 3.489,0 0,0"
                 style="fill:#93083a;fill-opacity:1;fill-rule:nonzero;stroke:none"
                 id="path27905"
                 inkscape:connector-curvature="0" /></g></g></g></g><g
         style="display:inline;opacity:0.8"
         id="g27907"
         transform="matrix(2.1719196,0,0,-2.1719196,-62.497316,592.38456)"><g
           id="g27909" /><g
           id="g27911"><g
             clip-path="url(#clipPath3146)"
             id="g27913"><g
               transform="translate(41.1118,124.5449)"
               id="g27915"><path
                 d="m 0,0 c -3.489,0 -6.318,2.828 -6.318,6.317 l 0,54.965 c 0,3.489 2.829,6.318 6.318,6.318 3.489,0 6.318,-2.829 6.318,-6.318 l 0,-54.965 C 6.318,2.828 3.489,0 0,0"
                 style="fill:#40791d;fill-opacity:1;fill-rule:nonzero;stroke:none"
                 id="path27917"
                 inkscape:connector-curvature="0" /></g></g></g></g><g
         style="display:inline;opacity:0.8"
         id="g27919"
         transform="matrix(2.172779,0,0,-1.9802119,-62.649656,568.77805)"><g
           id="g27921" /><g
           id="g27923"><g
             clip-path="url(#clipPath3194)"
             id="g27925"><g
               transform="translate(183.5635,123.1377)"
               id="g27927"><path
                 d="m 0,0 c -3.489,0 -6.318,2.828 -6.318,6.317 l 0,1.231 c 0,3.488 2.829,6.316 6.318,6.316 3.489,0 6.317,-2.828 6.317,-6.316 l 0,-1.231 C 6.317,2.828 3.489,0 0,0"
                 style="fill:#961316;fill-opacity:1;fill-rule:nonzero;stroke:none"
                 id="path27929"
                 inkscape:connector-curvature="0" /></g></g></g></g><g
         style="display:inline;opacity:0.8"
         id="g27931"
         transform="matrix(2.1719196,0,0,-2.1719196,375.32476,322.11196)"><path
           d="m 0,0 c -3.488,0 -6.317,2.829 -6.317,6.318 l 0,54.965 c 0,3.489 2.829,6.318 6.317,6.318 3.489,0 6.317,-2.829 6.317,-6.318 l 0,-54.965 C 6.317,2.829 3.489,0 0,0"
           style="fill:#285181;fill-opacity:1;fill-rule:nonzero;stroke:none"
           id="path27933"
           inkscape:connector-curvature="0" /></g><g
         style="display:inline;opacity:0.8"
         id="g27935"
         transform="matrix(2.1719196,0,0,-2.1719196,-62.497316,592.38456)"><g
           id="g27937" /><g
           id="g27939"><g
             clip-path="url(#clipPath3030)"
             id="g27941"><g
               transform="translate(229.0029,179.4048)"
               id="g27943"><path
                 d="m 0,0 -27.42,0 c -3.488,0 -6.317,2.829 -6.317,6.318 0,3.489 2.829,6.317 6.317,6.317 l 27.42,0 c 3.489,0 6.318,-2.828 6.318,-6.317 C 6.318,2.829 3.489,0 0,0"
                 style="fill:#93083a;fill-opacity:1;fill-rule:nonzero;stroke:none"
                 id="path27945"
                 inkscape:connector-curvature="0" /></g></g></g></g><g
         style="display:inline;opacity:0.8"
         id="g27947"
         transform="matrix(2.1719196,0,0,-2.1719196,-62.497316,592.38456)"><g
           id="g27949" /><g
           id="g27951"><g
             clip-path="url(#clipPath3062)"
             id="g27953"><g
               transform="translate(229.0029,153.4448)"
               id="g27955"><path
                 d="m 0,0 c -3.489,0 -6.317,2.828 -6.317,6.317 0,3.49 2.828,6.318 6.317,6.318 3.694,0 6.7,3.006 6.7,6.7 0,3.694 -3.006,6.699 -6.7,6.699 -3.489,0 -6.317,2.828 -6.317,6.318 0,3.489 2.828,6.317 6.317,6.317 10.661,0 19.335,-8.673 19.335,-19.334 C 19.335,8.673 10.661,0 0,0"
                 style="fill:#552665;fill-opacity:1;fill-rule:nonzero;stroke:none"
                 id="path27957"
                 inkscape:connector-curvature="0" /></g></g></g></g><g
         style="display:inline;opacity:0.8"
         id="g27959"
         transform="matrix(2.1719196,0,0,-2.1719196,-62.497316,592.38456)"><g
           id="g27961" /><g
           id="g27963"><g
             clip-path="url(#clipPath3094)"
             id="g27965"><g
               transform="translate(229.0059,153.4448)"
               id="g27967"><path
                 d="m 0,0 -27.423,0 c -3.488,0 -6.317,2.828 -6.317,6.317 0,3.49 2.829,6.318 6.317,6.318 l 27.423,0 c 3.489,0 6.317,-2.828 6.317,-6.318 C 6.317,2.828 3.489,0 0,0"
                 style="fill:#983b10;fill-opacity:1;fill-rule:nonzero;stroke:none"
                 id="path27969"
                 inkscape:connector-curvature="0" /></g></g></g></g><g
         style="display:inline;opacity:0.8"
         id="g27983"
         transform="matrix(2.1719196,0,0,-2.1719196,-62.497316,592.38456)"><g
           id="g27985" /><g
           id="g27987"><g
             clip-path="url(#clipPath3046)"
             id="g27989"><g
               transform="translate(232.1465,124.4395)"
               id="g27991"><path
                 d="m 0,0 -30.563,0 c -3.489,0 -6.318,2.829 -6.318,6.318 0,3.49 2.829,6.319 6.318,6.319 l 30.563,0 c 3.489,0 6.318,-2.829 6.318,-6.319 C 6.318,2.829 3.489,0 0,0"
                 style="fill:#40791d;fill-opacity:1;fill-rule:nonzero;stroke:none"
                 id="path27993"
                 inkscape:connector-curvature="0" /></g></g></g></g></g></g><g
     inkscape:groupmode="layer"
     id="layer1"
     inkscape:label="Eléments transparents"
     style="display:inline"
     sodipodi:insensitive="true"
     transform="translate(-12.072237,-173.06129)"><g
       style="display:inline"
       id="g3486"
       transform="matrix(2.1719196,0,0,-2.1719196,25.42199,307.86526)"><path
         d="M 0,0 96.663,53.701"
         style="fill:none;stroke:#ffffff;stroke-width:2.68600011;stroke-linecap:butt;stroke-linejoin:miter;stroke-miterlimit:4;stroke-dasharray:none;stroke-opacity:1"
         id="path3488"
         inkscape:connector-curvature="0" /></g><g
       style="display:inline"
       id="g3490"
       transform="matrix(2.1719196,0,0,-2.1719196,282.01714,283.85209)"><path
         d="M 0,0 25.271,-13.583"
         style="fill:none;stroke:#ffffff;stroke-width:2.68600011;stroke-linecap:butt;stroke-linejoin:miter;stroke-miterlimit:4;stroke-dasharray:none;stroke-opacity:1"
         id="path3492"
         inkscape:connector-curvature="0" /></g><g
       style="display:inline"
       id="g3494"
       transform="matrix(2.1719196,0,0,-2.1719196,434.30951,244.56657)"><path
         d="M 0,0 0.316,25.587"
         style="fill:none;stroke:#ffffff;stroke-width:2.68600011;stroke-linecap:butt;stroke-linejoin:miter;stroke-miterlimit:4;stroke-dasharray:none;stroke-opacity:1"
         id="path3496"
         inkscape:connector-curvature="0" /></g><g
       style="display:inline"
       id="g3498"
       transform="matrix(2.1719196,0,0,-2.1719196,376.00977,187.80089)"><path
         d="M 0,0 30.326,-57.491"
         style="fill:none;stroke:#ffffff;stroke-width:2.68600011;stroke-linecap:butt;stroke-linejoin:miter;stroke-miterlimit:4;stroke-dasharray:none;stroke-opacity:1"
         id="path3500"
         inkscape:connector-curvature="0" /></g><g
       style="display:inline"
       id="g3502"
       transform="matrix(2.1713909,-0.04792071,-0.04792071,-2.1713909,375.57588,308.93943)"><path
         d="M 0,0 -18.006,-0.316"
         style="fill:none;stroke:#ffffff;stroke-width:2.68600011;stroke-linecap:butt;stroke-linejoin:miter;stroke-miterlimit:4;stroke-dasharray:none;stroke-opacity:1"
         id="path3504"
         inkscape:connector-curvature="0" /></g><g
       style="display:inline"
       id="g3506"
       transform="matrix(2.1719196,0,0,-2.1719196,135.19515,308.55029)"><path
         d="M 0,0 25.587,12.319"
         style="fill:none;stroke:#ffffff;stroke-width:2.68600011;stroke-linecap:butt;stroke-linejoin:miter;stroke-miterlimit:4;stroke-dasharray:none;stroke-opacity:1"
         id="path3508"
         inkscape:connector-curvature="0" /></g><g
       style="display:inline"
       id="g3510"
       transform="matrix(2.1719196,0,0,-2.1719196,375.32476,246.11824)"><path
         d="M 0,0 -161.103,26.219"
         style="fill:none;stroke:#ffffff;stroke-width:2.68600011;stroke-linecap:butt;stroke-linejoin:miter;stroke-miterlimit:4;stroke-dasharray:none;stroke-opacity:1"
         id="path3512"
         inkscape:connector-curvature="0" /></g><path
       sodipodi:type="star"
       style="display:inline;fill:#ffffff;fill-opacity:1;stroke-width:28;stroke-linecap:round;stroke-miterlimit:4;stroke-dasharray:none"
       id="path3514"
       sodipodi:sides="6"
       sodipodi:cx="49.115219"
       sodipodi:cy="119.27982"
       sodipodi:r1="12.090189"
       sodipodi:r2="6.0450945"
       sodipodi:arg1="1.5385494"
       sodipodi:arg2="2.0621482"
       inkscape:flatsided="true"
       inkscape:rounded="0"
       inkscape:randomized="0"
       d="m 49.505023,131.36373 -10.659869,-5.70437 -0.389804,-12.08391 10.270065,-6.37953 10.65987,5.70437 0.389803,12.0839 z"
       transform="matrix(0.65199138,0,0,0.57515709,-5.0531975,120.19073)" /><path
       sodipodi:type="star"
       style="display:inline;fill:#ffffff;fill-opacity:1;stroke-width:28;stroke-linecap:round;stroke-miterlimit:4;stroke-dasharray:none"
       id="path3514-8"
       sodipodi:sides="6"
       sodipodi:cx="49.115219"
       sodipodi:cy="119.27982"
       sodipodi:r1="12.090189"
       sodipodi:r2="6.0450945"
       sodipodi:arg1="1.5385494"
       sodipodi:arg2="2.0621482"
       inkscape:flatsided="true"
       inkscape:rounded="0"
       inkscape:randomized="0"
       d="m 49.505023,131.36373 -10.659869,-5.70437 -0.389804,-12.08391 10.270065,-6.37953 10.65987,5.70437 0.389803,12.0839 z"
       transform="matrix(0.65199138,0,0,0.57515709,-4.9588113,239.29144)" /><path
       sodipodi:type="star"
       style="display:inline;fill:#ffffff;fill-opacity:1;stroke-width:28;stroke-linecap:round;stroke-miterlimit:4;stroke-dasharray:none"
       id="path3514-8-0"
       sodipodi:sides="6"
       sodipodi:cx="49.115219"
       sodipodi:cy="119.27982"
       sodipodi:r1="12.090189"
       sodipodi:r2="6.0450945"
       sodipodi:arg1="1.5385494"
       sodipodi:arg2="2.0621482"
       inkscape:flatsided="true"
       inkscape:rounded="0"
       inkscape:randomized="0"
       d="m 49.505023,131.36373 -10.659869,-5.70437 -0.389804,-12.08391 10.270065,-6.37953 10.65987,5.70437 0.389803,12.0839 z"
       transform="matrix(0.65199138,0,0,0.57515709,66.096221,239.53712)" /><path
       sodipodi:type="star"
       style="display:inline;fill:#ffffff;fill-opacity:1;stroke-width:28;stroke-linecap:round;stroke-miterlimit:4;stroke-dasharray:none"
       id="path3514-8-4"
       sodipodi:sides="6"
       sodipodi:cx="49.115219"
       sodipodi:cy="119.27982"
       sodipodi:r1="12.090189"
       sodipodi:r2="6.0450945"
       sodipodi:arg1="1.5385494"
       sodipodi:arg2="2.0621482"
       inkscape:flatsided="true"
       inkscape:rounded="0"
       inkscape:randomized="0"
       d="m 49.505023,131.36373 -10.659869,-5.70437 -0.389804,-12.08391 10.270065,-6.37953 10.65987,5.70437 0.389803,12.0839 z"
       transform="matrix(0.65199138,0,0,0.57515709,105.30696,241.63559)" /><path
       sodipodi:type="star"
       style="display:inline;fill:#ffffff;fill-opacity:1;stroke-width:28;stroke-linecap:round;stroke-miterlimit:4;stroke-dasharray:none"
       id="path3514-8-5"
       sodipodi:sides="6"
       sodipodi:cx="49.115219"
       sodipodi:cy="119.27982"
       sodipodi:r1="12.090189"
       sodipodi:r2="6.0450945"
       sodipodi:arg1="1.5385494"
       sodipodi:arg2="2.0621482"
       inkscape:flatsided="true"
       inkscape:rounded="0"
       inkscape:randomized="0"
       d="m 49.505023,131.36373 -10.659869,-5.70437 -0.389804,-12.08391 10.270065,-6.37953 10.65987,5.70437 0.389803,12.0839 z"
       transform="matrix(0.65199138,0,0,0.57515709,142.57791,243.49401)" /><path
       sodipodi:type="star"
       style="display:inline;fill:#ffffff;fill-opacity:1;stroke-width:28;stroke-linecap:round;stroke-miterlimit:4;stroke-dasharray:none"
       id="path3514-8-3"
       sodipodi:sides="6"
       sodipodi:cx="49.115219"
       sodipodi:cy="119.27982"
       sodipodi:r1="12.090189"
       sodipodi:r2="6.0450945"
       sodipodi:arg1="1.5385494"
       sodipodi:arg2="2.0621482"
       inkscape:flatsided="true"
       inkscape:rounded="0"
       inkscape:randomized="0"
       d="m 49.505023,131.36373 -10.659869,-5.70437 -0.389804,-12.08391 10.270065,-6.37953 10.65987,5.70437 0.389803,12.0839 z"
       transform="matrix(0.65199138,0,0,0.57515709,156.42136,215.99643)" /><path
       sodipodi:type="star"
       style="display:inline;fill:#ffffff;fill-opacity:1;stroke-width:28;stroke-linecap:round;stroke-miterlimit:4;stroke-dasharray:none"
       id="path3514-8-52"
       sodipodi:sides="6"
       sodipodi:cx="49.115219"
       sodipodi:cy="119.27982"
       sodipodi:r1="12.090189"
       sodipodi:r2="6.0450945"
       sodipodi:arg1="1.5385494"
       sodipodi:arg2="2.0621482"
       inkscape:flatsided="true"
       inkscape:rounded="0"
       inkscape:randomized="0"
       d="m 49.505023,131.36373 -10.659869,-5.70437 -0.389804,-12.08391 10.270065,-6.37953 10.65987,5.70437 0.389803,12.0839 z"
       transform="matrix(0.65199138,0,0,0.57515709,203.00994,122.32399)" /><path
       sodipodi:type="star"
       style="display:inline;fill:#ffffff;fill-opacity:1;stroke-width:28;stroke-linecap:round;stroke-miterlimit:4;stroke-dasharray:none"
       id="path3514-8-3-6"
       sodipodi:sides="6"
       sodipodi:cx="49.115219"
       sodipodi:cy="119.27982"
       sodipodi:r1="12.090189"
       sodipodi:r2="6.0450945"
       sodipodi:arg1="1.5385494"
       sodipodi:arg2="2.0621482"
       inkscape:flatsided="true"
       inkscape:rounded="0"
       inkscape:randomized="0"
       d="m 49.505023,131.36373 -10.659869,-5.70437 -0.389804,-12.08391 10.270065,-6.37953 10.65987,5.70437 0.389803,12.0839 z"
       transform="matrix(0.65199138,0,0,0.57515709,251.33934,216.06996)" /><path
       sodipodi:type="star"
       style="display:inline;fill:#ffffff;fill-opacity:1;stroke-width:28;stroke-linecap:round;stroke-miterlimit:4;stroke-dasharray:none"
       id="path3514-8-3-1"
       sodipodi:sides="6"
       sodipodi:cx="49.115219"
       sodipodi:cy="119.27982"
       sodipodi:r1="12.090189"
       sodipodi:r2="6.0450945"
       sodipodi:arg1="1.5385494"
       sodipodi:arg2="2.0621482"
       inkscape:flatsided="true"
       inkscape:rounded="0"
       inkscape:randomized="0"
       d="m 49.505023,131.36373 -10.659869,-5.70437 -0.389804,-12.08391 10.270065,-6.37953 10.65987,5.70437 0.389803,12.0839 z"
       transform="matrix(0.65199138,0,0,0.57515709,304.05719,241.75661)" /><path
       sodipodi:type="star"
       style="display:inline;fill:#ffffff;fill-opacity:1;stroke-width:28;stroke-linecap:round;stroke-miterlimit:4;stroke-dasharray:none"
       id="path3514-8-3-2"
       sodipodi:sides="6"
       sodipodi:cx="49.115219"
       sodipodi:cy="119.27982"
       sodipodi:r1="12.090189"
       sodipodi:r2="6.0450945"
       sodipodi:arg1="1.5385494"
       sodipodi:arg2="2.0621482"
       inkscape:flatsided="true"
       inkscape:rounded="0"
       inkscape:randomized="0"
       d="m 49.505023,131.36373 -10.659869,-5.70437 -0.389804,-12.08391 10.270065,-6.37953 10.65987,5.70437 0.389803,12.0839 z"
       transform="matrix(0.65199138,0,0,0.57515709,342.61554,239.65972)" /><path
       sodipodi:type="star"
       style="display:inline;fill:#ffffff;fill-opacity:1;stroke-width:28;stroke-linecap:round;stroke-miterlimit:4;stroke-dasharray:none"
       id="path3514-8-3-9"
       sodipodi:sides="6"
       sodipodi:cx="49.115219"
       sodipodi:cy="119.27982"
       sodipodi:r1="12.090189"
       sodipodi:r2="6.0450945"
       sodipodi:arg1="1.5385494"
       sodipodi:arg2="2.0621482"
       inkscape:flatsided="true"
       inkscape:rounded="0"
       inkscape:randomized="0"
       d="m 49.505023,131.36373 -10.659869,-5.70437 -0.389804,-12.08391 10.270065,-6.37953 10.65987,5.70437 0.389803,12.0839 z"
       transform="matrix(0.65199138,0,0,0.57515709,409.10347,239.65395)" /><path
       sodipodi:type="star"
       style="display:inline;fill:#ffffff;fill-opacity:1;stroke-width:28;stroke-linecap:round;stroke-miterlimit:4;stroke-dasharray:none"
       id="path3514-8-3-9-2"
       sodipodi:sides="6"
       sodipodi:cx="49.115219"
       sodipodi:cy="119.27982"
       sodipodi:r1="12.090189"
       sodipodi:r2="6.0450945"
       sodipodi:arg1="1.5385494"
       sodipodi:arg2="2.0621482"
       inkscape:flatsided="true"
       inkscape:rounded="0"
       inkscape:randomized="0"
       d="m 49.505023,131.36373 -10.659869,-5.70437 -0.389804,-12.08391 10.270065,-6.37953 10.65987,5.70437 0.389803,12.0839 z"
       transform="matrix(0.65199138,0,0,0.57515709,402.95676,176.63242)" /><path
       sodipodi:type="star"
       style="display:inline;fill:#ffffff;fill-opacity:1;stroke-width:28;stroke-linecap:round;stroke-miterlimit:4;stroke-dasharray:none"
       id="path3514-8-3-9-3"
       sodipodi:sides="6"
       sodipodi:cx="49.115219"
       sodipodi:cy="119.27982"
       sodipodi:r1="12.090189"
       sodipodi:r2="6.0450945"
       sodipodi:arg1="1.5385494"
       sodipodi:arg2="2.0621482"
       inkscape:flatsided="true"
       inkscape:rounded="0"
       inkscape:randomized="0"
       d="m 49.505023,131.36373 -10.659869,-5.70437 -0.389804,-12.08391 10.270065,-6.37953 10.65987,5.70437 0.389803,12.0839 z"
       transform="matrix(0.65199138,0,0,0.57515709,343.68156,176.3166)" /><path
       sodipodi:type="star"
       style="display:inline;fill:#ffffff;fill-opacity:1;stroke-width:28;stroke-linecap:round;stroke-miterlimit:4;stroke-dasharray:none"
       id="path3514-8-3-9-20"
       sodipodi:sides="6"
       sodipodi:cx="49.115219"
       sodipodi:cy="119.27982"
       sodipodi:r1="12.090189"
       sodipodi:r2="6.0450945"
       sodipodi:arg1="1.5385494"
       sodipodi:arg2="2.0621482"
       inkscape:flatsided="true"
       inkscape:rounded="0"
       inkscape:randomized="0"
       d="m 49.505023,131.36373 -10.659869,-5.70437 -0.389804,-12.08391 10.270065,-6.37953 10.65987,5.70437 0.389803,12.0839 z"
       transform="matrix(0.65199138,0,0,0.57515709,345.01015,120.64776)" /><path
       sodipodi:type="star"
       style="display:inline;fill:#ffffff;fill-opacity:1;stroke-width:28;stroke-linecap:round;stroke-miterlimit:4;stroke-dasharray:none"
       id="path3514-8-3-9-4"
       sodipodi:sides="6"
       sodipodi:cx="49.115219"
       sodipodi:cy="119.27982"
       sodipodi:r1="12.090189"
       sodipodi:r2="6.0450945"
       sodipodi:arg1="1.5385494"
       sodipodi:arg2="2.0621482"
       inkscape:flatsided="true"
       inkscape:rounded="0"
       inkscape:randomized="0"
       d="m 49.505023,131.36373 -10.659869,-5.70437 -0.389804,-12.08391 10.270065,-6.37953 10.65987,5.70437 0.389803,12.0839 z"
       transform="matrix(0.65199138,0,0,0.57515709,402.95965,119.57019)" /><path
       sodipodi:type="star"
       style="display:inline;fill:#ffffff;fill-opacity:1;stroke-width:28;stroke-linecap:round;stroke-miterlimit:4;stroke-dasharray:none"
       id="path3514-8-3-9-8"
       sodipodi:sides="6"
       sodipodi:cx="49.115219"
       sodipodi:cy="119.27982"
       sodipodi:r1="12.090189"
       sodipodi:r2="6.0450945"
       sodipodi:arg1="1.5385494"
       sodipodi:arg2="2.0621482"
       inkscape:flatsided="true"
       inkscape:rounded="0"
       inkscape:randomized="0"
       d="m 49.505023,131.36373 -10.659869,-5.70437 -0.389804,-12.08391 10.270065,-6.37953 10.65987,5.70437 0.389803,12.0839 z"
       transform="matrix(0.65199138,0,0,0.57515709,264.53081,242.73516)" /></g></svg>