<svg id="Layer_3" height="512" viewBox="0 0 64 64" width="512" xmlns="http://www.w3.org/2000/svg" data-name="Layer 3"><path d="m28 15-26 19 3 4 23-17 23 17 3-4z" fill="#559b2d"/><ellipse cx="48" cy="15" fill="#ccc" rx="14" ry="13"/><path d="m59 13a12.544 12.544 0 0 0 -4.447-9.485 14.8 14.8 0 0 0 -6.553-1.515c-7.732 0-14 5.82-14 13a12.544 12.544 0 0 0 4.447 9.485 14.8 14.8 0 0 0 6.553 1.515c7.732 0 14-5.82 14-13z" fill="#d8d8d8"/><path d="m48 35.783v26.217h-40v-26.217l20-14.783z" fill="#e2e7f6"/><path d="m30 52a2.99 2.99 0 0 0 2.822-2.018c.06 0 .117.018.178.018a3.98 3.98 0 0 0 3.038-6.575 3.986 3.986 0 1 0 -4.1-6.838 3.918 3.918 0 0 0 .062-.587 4 4 0 0 0 -8 0 4.053 4.053 0 0 0 .059.587 3.958 3.958 0 0 0 -2.059-.587 3.989 3.989 0 0 0 -2.037 7.425 3.979 3.979 0 0 0 3.037 6.575c.061 0 .118-.015.178-.018a2.991 2.991 0 0 0 2.822 2.018" fill="#4d8c28"/><path d="m33 62a15 15 0 0 1 -3-9v-5l3-3-3-2-2 2-2-2-3 2 3 3v5a14.994 14.994 0 0 1 -3 9" fill="#c18e59"/><g fill="#b5b5b5"><path d="m42 8h-1a3 3 0 0 0 -3 3v4a3 3 0 0 0 3 3h1a3 3 0 0 0 3-3v-1h-2v1a1 1 0 0 1 -1 1h-1a1 1 0 0 1 -1-1v-4a1 1 0 0 1 1-1h1a1 1 0 0 1 1 1v1h2v-1a3 3 0 0 0 -3-3z"/><path d="m50 8h-1a3 3 0 0 0 -3 3v4a3 3 0 0 0 3 3h1a3 3 0 0 0 3-3v-4a3 3 0 0 0 -3-3zm1 7a1 1 0 0 1 -1 1h-1a1 1 0 0 1 -1-1v-4a1 1 0 0 1 1-1h1a1 1 0 0 1 1 1z"/><path d="m58 18a1 1 0 0 0 1-1v-3a1 1 0 0 0 -1-1h-4v2h3v1h-2a1 1 0 0 0 -1 1v3a1 1 0 0 0 1 1h4v-2h-3v-1z"/></g><circle cx="59" cy="31" fill="#ccc" r="3"/><path d="m59 28a2.993 2.993 0 0 0 -2.169 5.063 2.969 2.969 0 0 0 1.316.316 2.993 2.993 0 0 0 2.169-5.063 2.972 2.972 0 0 0 -1.316-.316z" fill="#d8d8d8"/><path d="m20 13h-14.5a4.5 4.5 0 0 1 0-9h.5a3 3 0 0 1 0 6h-1v-2h1a1 1 0 0 0 0-2h-.5a2.5 2.5 0 0 0 0 5h14.5z" fill="#c0dafc"/><path d="m10 24h-.5a4.5 4.5 0 0 1 0-9h6.5v2h-6.5a2.5 2.5 0 0 0 0 5h.5a1 1 0 0 0 0-2h-1v-2h1a3 3 0 0 1 0 6z" fill="#aed5ff"/><path d="m58.5 61h-.5a3 3 0 0 1 0-6h1v2h-1a1 1 0 0 0 0 2h.5a2.5 2.5 0 0 0 0-5h-14.5v-2h14.5a4.5 4.5 0 0 1 0 9z" fill="#aed5ff"/><path d="m54.5 50h-6.5v-2h6.5a2.5 2.5 0 0 0 0-5h-.5a1 1 0 0 0 0 2h1v2h-1a3 3 0 0 1 0-6h.5a4.5 4.5 0 0 1 0 9z" fill="#c0dafc"/><circle cx="29" cy="7" fill="#ccc" r="3"/><path d="m26 7a2.981 2.981 0 0 0 .95 2.18 2.99 2.99 0 0 0 3.1-4.98 2.979 2.979 0 0 0 -4.05 2.8z" fill="#d8d8d8"/></svg>